<?xml version="1.0" standalone="no"?>
<!DOCTYPE svg PUBLIC "-//W3C//DTD SVG 1.1//EN" "http://www.w3.org/Graphics/SVG/1.1/DTD/svg11.dtd" >
<svg xmlns="http://www.w3.org/2000/svg">
<metadata></metadata>
<defs>
<font id="sugarcubesbook" horiz-adv-x="600" >
<font-face units-per-em="2048" ascent="1548" descent="-500" />
<missing-glyph horiz-adv-x="720" />
<glyph horiz-adv-x="2048" />
<glyph horiz-adv-x="2048" />
<glyph unicode="&#xd;" horiz-adv-x="682" />
<glyph unicode=" "  horiz-adv-x="720" />
<glyph unicode="&#x09;" horiz-adv-x="720" />
<glyph unicode="&#xa0;" horiz-adv-x="720" />
<glyph unicode="!" d="M200 90q0 42 29 71t71 29t71 -29t29 -71t-29 -71t-71 -29t-71 29t-29 71zM210 1450h180l-48 -986h-84z" />
<glyph unicode="&#x22;" horiz-adv-x="860" d="M200 1450h160l-42 -390h-76zM500 1450h160l-42 -390h-76z" />
<glyph unicode="#" horiz-adv-x="1328" d="M0 444v80h310l132 396h-314v80h342l154 460l76 -26l-146 -434h420l150 450l76 -26l-142 -424h270v-80h-298l-132 -396h302v-80h-328l-156 -464l-76 26l146 438h-418l-152 -454l-76 26l144 428h-284zM394 524h420l132 396h-418z" />
<glyph unicode="$" horiz-adv-x="992" d="M100 50v252h100v-174q108 -38 238 -38h20v404q-170 28 -256 91t-86 185q0 116 98 188t244 76v136h80v-136q136 -6 284 -48v-252h-100v176q-66 18 -184 26v-340q354 -62 354 -302q0 -154 -95 -221t-259 -79v-146h-80v142h-16q-188 0 -342 60zM238 772q0 -116 220 -162v328 q-90 -4 -155 -50t-65 -116zM538 96q232 30 232 202q0 62 -63 108t-169 72v-382z" />
<glyph unicode="%" horiz-adv-x="1280" d="M100 792q0 100 70 170t170 70t170 -70t70 -170t-70 -170t-170 -70t-170 70t-70 170zM172 792q0 -68 50 -118t118 -50t118 50t50 118t-50 118t-118 50t-118 -50t-50 -118zM312 30l586 1004l70 -40l-586 -1004zM700 230q0 100 70 170t170 70t170 -70t70 -170t-70 -170 t-170 -70t-170 70t-70 170zM772 230q0 -70 50 -119t118 -49t118 49t50 119t-50 119t-118 49t-118 -49t-50 -119z" />
<glyph unicode="&#x26;" horiz-adv-x="1466" d="M100 398q0 82 52 157t110 119t160 108q-104 122 -148 203t-44 175q0 130 87 215t237 85q156 0 244 -85t88 -223q0 -122 -80 -206t-228 -178q2 -4 7 -10t9 -8l368 -412q120 178 120 390h-154v100h410v-100h-156q0 -254 -152 -466l144 -162h192v-100h-264l-148 172 q-182 -182 -418 -182q-176 0 -306 118t-130 290zM238 396q0 -126 87 -216t211 -90q200 0 352 156l-372 428q-6 6 -17 18t-15 18q-120 -78 -183 -149t-63 -165zM352 1160q0 -78 37 -148t125 -172q120 78 185 149t65 163q0 90 -56 149t-154 59q-92 0 -147 -58t-55 -142z" />
<glyph unicode="'" horiz-adv-x="560" d="M200 1450h160l-42 -390h-76z" />
<glyph unicode="(" d="M184 614q0 392 196 934h80q-156 -508 -156 -934q0 -428 156 -934h-80q-196 542 -196 934z" />
<glyph unicode=")" d="M140 -320q156 506 156 934q0 426 -156 934h80q196 -542 196 -934t-196 -934h-80z" />
<glyph unicode="*" horiz-adv-x="722" d="M60 1286l46 112l222 -122l-4 252l120 -10l-46 -248l238 80l28 -116l-250 -32l150 -202l-102 -62l-108 228l-146 -206l-90 78l182 174z" />
<glyph unicode="+" horiz-adv-x="1000" d="M100 530v80h360v360h80v-360h360v-80h-360v-360h-80v360h-360z" />
<glyph unicode="," d="M200 90q0 42 29 71t71 29t71 -29t29 -71q0 -174 -144 -300l-40 40q68 82 68 128q0 24 -16 32q-68 36 -68 100z" />
<glyph unicode="-" d="M100 530v100h400v-100h-400z" />
<glyph unicode="." d="M200 90q0 42 29 71t71 29t71 -29t29 -71t-29 -71t-71 -29t-71 29t-29 71z" />
<glyph unicode="/" d="M-8 -116l540 1664l76 -26l-540 -1664z" />
<glyph unicode="0" horiz-adv-x="1224" d="M100 512q0 218 150 370t362 152t362 -152t150 -370t-150 -370t-362 -152t-362 152t-150 370zM222 512q0 -176 114 -298t276 -122t276 122t114 298t-114 298t-276 122t-276 -122t-114 -298z" />
<glyph unicode="1" horiz-adv-x="768" d="M160 0v100h164v824h-164v100h448v-100h-162v-824h162v-100h-448z" />
<glyph unicode="2" horiz-adv-x="1000" d="M100 0v100q660 400 660 636q0 100 -77 147t-187 47q-140 0 -256 -40v-188h-100v252q168 80 356 80q392 0 392 -290q0 -60 -30 -125t-65 -115t-105 -112t-110 -95t-123 -87t-98 -63t-79 -47h522v156h100v-256h-800z" />
<glyph unicode="3" horiz-adv-x="1056" d="M100 -244h100v-162q40 -2 60 -2q148 0 259 31t169 75t93 104t44 105t9 93q0 152 -82 213t-284 61q-22 0 -68 -2v100q64 10 122 29t123 54t104 96t39 139q0 108 -74 175t-190 67q-142 0 -264 -36v-186h-100v252q150 72 364 72q186 0 285 -95t99 -249q0 -250 -246 -334 q158 -30 226 -116t68 -240q0 -102 -39 -189t-120 -160t-227 -114t-342 -41q-40 0 -128 4v256z" />
<glyph unicode="4" horiz-adv-x="1230" d="M100 80v100l614 844h172v-844h244v-100h-244v-400h-122v400h-664zM220 180h544v748z" />
<glyph unicode="5" horiz-adv-x="1056" d="M100 -244h100v-162q44 -2 64 -2q570 0 570 408q0 354 -440 354q-86 0 -234 -18v688h708v-256h-100v136h-506v-460q62 4 118 4q286 0 431 -105t145 -343q0 -504 -714 -504q-44 0 -142 4v256z" />
<glyph unicode="6" horiz-adv-x="1050" d="M100 502q0 344 168 600t422 370l42 -88q-188 -98 -327 -275t-175 -445q50 58 138 97t190 39q180 0 286 -107t106 -293q0 -170 -120 -290t-290 -120q-186 0 -313 124t-127 388zM222 470q0 -170 84 -275t234 -105q120 0 204 90t84 220q0 142 -79 226t-191 84 q-120 0 -228 -78t-108 -162z" />
<glyph unicode="7" horiz-adv-x="900" d="M20 768v256h860v-90l-552 -1276l-124 58l552 1188h-636v-136h-100z" />
<glyph unicode="8" horiz-adv-x="1080" d="M100 410q0 128 64 225t174 145q-188 82 -188 316q0 160 113 262t277 102t277 -102t113 -262q0 -234 -188 -316q110 -48 174 -145t64 -225q0 -184 -124 -302t-316 -118t-316 118t-124 302zM220 426q0 -144 89 -236t231 -92t231 92t89 236q0 136 -100 226t-220 90t-220 -90 t-100 -226zM270 1090q0 -118 78 -195t192 -77t192 77t78 195t-78 194t-192 76t-192 -76t-78 -194z" />
<glyph unicode="9" horiz-adv-x="1050" d="M100 614q0 172 116 296t284 124q88 0 164 -25t143 -80t105 -159t38 -248q0 -370 -203 -637t-477 -343l-28 92q228 84 388 267t192 483q-44 -70 -129 -115t-181 -45q-184 0 -298 103t-114 287zM220 614q0 -140 88 -220t204 -80q126 0 222 84t96 212q0 132 -85 228t-245 96 q-118 0 -199 -95t-81 -225z" />
<glyph unicode=":" d="M200 90q0 42 29 71t71 29t71 -29t29 -71t-29 -71t-71 -29t-71 29t-29 71zM200 884q0 42 29 71t71 29t71 -29t29 -71t-29 -71t-71 -29t-71 29t-29 71z" />
<glyph unicode=";" d="M200 90q0 42 29 71t71 29t71 -29t29 -71q0 -174 -144 -300l-40 40q68 82 68 128q0 24 -16 32q-68 36 -68 100zM200 884q0 42 29 71t71 29t71 -29t29 -71t-29 -71t-71 -29t-71 29t-29 71z" />
<glyph unicode="&#x3c;" horiz-adv-x="1010" d="M100 538v60l790 254l20 -90l-644 -194l644 -194l-20 -90z" />
<glyph unicode="=" horiz-adv-x="1000" d="M100 366v80h800v-80h-800zM100 692v80h800v-80h-800z" />
<glyph unicode="&#x3e;" horiz-adv-x="1010" d="M100 374l644 194l-644 194l20 90l790 -254v-60l-790 -254z" />
<glyph unicode="?" horiz-adv-x="966" d="M60 1112v256q192 92 408 92q204 0 321 -84t117 -264q0 -76 -33 -141t-86 -119t-110 -107t-113 -126t-86 -155h-84q14 94 79 189t133 159t124 145t56 155q0 246 -318 246q-194 0 -308 -48v-198h-100zM336 90q0 42 29 71t71 29t71 -29t29 -71t-29 -71t-71 -29t-71 29 t-29 71z" />
<glyph unicode="@" horiz-adv-x="1794" d="M100 528q0 332 234 566t566 234q372 0 583 -194t211 -528q0 -236 -104 -358t-232 -122q-64 0 -111 33t-57 91q-102 -156 -298 -156q-174 0 -292 123t-118 295t118 295t292 123q194 0 296 -152v144h120v-630q0 -38 21 -59t57 -21q80 0 154 103t74 291q0 302 -187 474 t-527 172q-298 0 -509 -212t-211 -512t211 -512t509 -212q154 0 294 62l32 -68q-160 -70 -326 -70q-332 0 -566 234t-234 566zM602 512q0 -130 84 -224t206 -94t209 94t87 224t-87 224t-209 94t-206 -94t-84 -224z" />
<glyph unicode="A" horiz-adv-x="1380" d="M0 0v100h122l510 1362h116l514 -1362h118v-100h-384v100h120l-148 420h-562l-150 -420h128v-100h-384zM442 620h490l-242 688z" />
<glyph unicode="B" horiz-adv-x="1320" d="M100 0v100h144v1250h-144v100h604q270 0 382 -91t112 -291q0 -258 -220 -320q282 -48 282 -368q0 -196 -127 -288t-393 -92h-640zM366 100h374q206 0 302 64t96 216q0 308 -322 308h-450v-588zM366 788h356q354 0 354 280q0 152 -89 217t-283 65h-338v-562z" />
<glyph unicode="C" horiz-adv-x="1460" d="M100 726q0 312 211 523t521 211q314 0 524 -216l-68 -68q-202 184 -456 184q-258 0 -435 -184t-177 -450t177 -451t435 -185q254 0 460 190l68 -66q-214 -224 -528 -224q-310 0 -521 212t-211 524z" />
<glyph unicode="D" horiz-adv-x="1510" d="M100 0v100h144v1250h-144v100h578q386 0 559 -180t173 -534q0 -358 -172 -547t-560 -189h-578zM366 100h312q326 0 464 162t138 474q0 308 -139 461t-463 153h-312v-1250z" />
<glyph unicode="E" horiz-adv-x="1300" d="M100 0v100h144v1250h-144v100h1100v-256h-100v156h-734v-546h680v-100h-680v-604h734v156h100v-256h-1100z" />
<glyph unicode="F" horiz-adv-x="1120" d="M100 0v100h144v1250h-144v100h1000v-256h-100v156h-634v-546h580v-100h-580v-604h192v-100h-458z" />
<glyph unicode="G" horiz-adv-x="1574" d="M100 726q0 312 211 523t521 211q314 0 524 -216l-68 -68q-202 184 -456 184q-258 0 -435 -184t-177 -450t177 -451t435 -185q244 0 406 94v372h-224v100h480v-100l-134 4v-410q-188 -160 -528 -160q-310 0 -521 212t-211 524z" />
<glyph unicode="H" horiz-adv-x="1540" d="M120 0v100h144v1250h-144v100h410v-100h-144v-546h768v546h-144v100h410v-100h-144v-1250h144v-100h-410v100h144v604h-768v-604h144v-100h-410z" />
<glyph unicode="I" horiz-adv-x="810" d="M160 0v100h184v1250h-184v100h490v-100h-184v-1250h184v-100h-490z" />
<glyph unicode="J" horiz-adv-x="900" d="M20 0v256h100v-156h96q96 0 157 7t107 32t68 53t35 95t16 131t3 184v748h-146v100h384v-100h-116v-758q0 -136 -7 -225t-31 -158t-57 -107t-94 -63t-133 -32t-186 -7h-196z" />
<glyph unicode="K" horiz-adv-x="1306" d="M100 0v100h164v1250h-144v100h406v-100h-140v-568l534 568h-108v100h384v-100h-128l-574 -600l580 -650h192v-100h-264l-582 670l-34 -34v-536h162v-100h-448z" />
<glyph unicode="L" horiz-adv-x="1220" d="M100 0v100h144v1250h-144v100h410v-100h-144v-1250h734v156h100v-256h-1100z" />
<glyph unicode="M" horiz-adv-x="1944" d="M100 0v100h146v1250h-146v100h374l508 -1298l488 1298h374v-100h-144v-1250h144v-100h-410v100h142v1282l-536 -1382h-116l-558 1372v-1272h144v-100h-410z" />
<glyph unicode="N" horiz-adv-x="1600" d="M100 0v100h146v1250h-146v100h354l782 -1316v1216h-146v100h410v-100h-144v-1350h-180l-810 1362v-1262h144v-100h-410z" />
<glyph unicode="O" horiz-adv-x="1664" d="M100 726q0 312 211 523t521 211t521 -211t211 -523t-211 -524t-521 -212t-521 212t-211 524zM220 726q0 -266 177 -451t435 -185t435 185t177 451t-177 450t-435 184t-435 -184t-177 -450z" />
<glyph unicode="P" horiz-adv-x="1268" d="M100 0v100h144v1250h-144v100h604q266 0 385 -104t119 -308q0 -194 -123 -301t-363 -107h-356v-530h144v-100h-410zM366 730h356q168 0 266 79t98 229q0 312 -382 312h-338v-620z" />
<glyph unicode="Q" horiz-adv-x="1654" d="M100 726q0 312 211 523t521 211t521 -211t211 -523q0 -332 -238 -550l70 -76h218v-100h-260l-106 116q-186 -126 -416 -126q-310 0 -521 212t-211 524zM220 726q0 -266 177 -451t435 -185q192 0 342 106l-198 216l74 68l202 -220q192 186 192 466q0 266 -177 450 t-435 184t-435 -184t-177 -450z" />
<glyph unicode="R" horiz-adv-x="1412" d="M100 0v100h144v1250h-144v100h604q266 0 385 -104t119 -308q0 -178 -99 -277t-267 -123l298 -538h172v-100h-264l-326 630h-356v-530h144v-100h-410zM366 730h356q168 0 266 79t98 229q0 312 -382 312h-338v-620z" />
<glyph unicode="S" horiz-adv-x="1190" d="M100 50v252h100v-162q196 -46 338 -46q430 0 430 288q0 76 -32 133t-93 90t-125 51t-150 30q-94 14 -164 34t-141 61t-109 114t-38 175q0 190 133 290t325 100q280 0 446 -54v-252h-100v166q-176 40 -350 40q-134 0 -233 -69t-99 -219q0 -62 22 -108t51 -73t88 -48 t103 -30t124 -21q84 -14 145 -30t125 -47t104 -73t65 -109t25 -155q0 -388 -548 -388q-240 0 -442 60z" />
<glyph unicode="T" horiz-adv-x="1242" d="M20 1194v256h1202v-256h-100v156h-440v-1250h144v-100h-410v100h144v1250h-440v-156h-100z" />
<glyph unicode="U" horiz-adv-x="1438" d="M60 1350v100h410v-100h-142v-764q0 -152 27 -253t83 -152t122 -70t162 -19q94 0 159 19t121 70t84 152t28 253v764h-146v100h410v-100h-144v-764q0 -178 -39 -299t-113 -184t-160 -88t-200 -25q-116 0 -203 25t-162 88t-114 184t-39 299v764h-144z" />
<glyph unicode="V" horiz-adv-x="1400" d="M0 1350v100h384v-100h-120l448 -1208l428 1208h-124v100h384v-100h-128l-502 -1360h-116l-530 1360h-124z" />
<glyph unicode="W" horiz-adv-x="2016" d="M0 1350v100h384v-100h-120l368 -1168l318 1150h120l338 -1150l348 1168h-124v100h384v-100h-134l-416 -1360h-116l-338 1136l-322 -1136h-116l-444 1360h-130z" />
<glyph unicode="X" horiz-adv-x="1440" d="M100 0v100h126l416 624l-418 626h-124v100h384v-100h-114l350 -536l352 536h-116v100h384v-100h-126l-416 -624l418 -626h124v-100h-384v100h114l-350 538l-352 -538h116v-100h-384z" />
<glyph unicode="Y" horiz-adv-x="1320" d="M0 1350v100h390v-100h-120l408 -676l382 676h-124v100h384v-100h-128l-456 -790v-460h144v-100h-410v100h144v460l-490 790h-124z" />
<glyph unicode="Z" horiz-adv-x="1400" d="M100 0v100l1012 1250h-872v-156h-100v256h1120v-100l-1012 -1250h952v156h100v-256h-1200z" />
<glyph unicode="[" horiz-adv-x="564" d="M160 -320v1868h244v-80h-144v-1708h144v-80h-244z" />
<glyph unicode="\" d="M-8 1522l76 26l540 -1664l-76 -26z" />
<glyph unicode="]" horiz-adv-x="564" d="M160 -240h144v1708h-144v80h244v-1868h-244v80z" />
<glyph unicode="^" horiz-adv-x="1360" d="M396 1210l248 250h72l248 -250l-58 -62l-226 174l-226 -174z" />
<glyph unicode="_" horiz-adv-x="1000" d="M100 0h800v-80h-800v80z" />
<glyph unicode="`" horiz-adv-x="1360" d="M522 1420v30h188l128 -244v-28h-84z" />
<glyph unicode="a" horiz-adv-x="1366" d="M100 512q0 214 148 368t364 154q268 0 390 -222v212h122v-924h142v-100h-264v212q-122 -222 -390 -222q-216 0 -364 154t-148 368zM222 512q0 -170 115 -295t275 -125t275 125t115 295t-115 295t-275 125t-275 -125t-115 -295z" />
<glyph unicode="b" horiz-adv-x="1368" d="M100 0v100h144v1348h-144v100h266v-736q122 222 390 222q216 0 364 -154t148 -368t-148 -368t-364 -154q-268 0 -390 222v-212h-266zM366 512q0 -170 115 -295t275 -125t275 125t115 295t-115 295t-275 125t-275 -125t-115 -295z" />
<glyph unicode="c" horiz-adv-x="1098" d="M100 512q0 224 153 373t375 149q202 0 354 -132l-66 -82q-138 112 -288 112q-166 0 -286 -120t-120 -300t120 -300t286 -120t302 132l68 -74q-156 -160 -370 -160q-222 0 -375 149t-153 373z" />
<glyph unicode="d" horiz-adv-x="1366" d="M100 512q0 214 148 368t364 154q268 0 390 -222v636h-144v100h266v-1448h142v-100h-264v212q-122 -222 -390 -222q-216 0 -364 154t-148 368zM222 512q0 -170 115 -295t275 -125t275 125t115 295t-115 295t-275 125t-275 -125t-115 -295z" />
<glyph unicode="e" horiz-adv-x="1180" d="M100 512q0 220 141 371t353 151q222 0 354 -131t132 -373q0 -12 -2 -38h-856q6 -176 118 -288t278 -112q214 0 342 202l92 -54q-70 -114 -183 -182t-251 -68q-220 0 -369 148t-149 374zM228 592h730q-14 156 -114 248t-250 92q-142 0 -243 -95t-123 -245z" />
<glyph unicode="f" horiz-adv-x="760" d="M100 0v100h164v824h-164v100h164v46q0 250 68 364t234 114h234v-256h-100v156h-134q-108 0 -144 -87t-36 -287v-50h274v-100h-274v-824h192v-100h-478z" />
<glyph unicode="g" horiz-adv-x="1368" d="M100 512q0 214 148 368t364 154q268 0 390 -222v212h266v-100h-144v-874q0 -290 -116 -420t-408 -130q-296 0 -484 158l68 98q194 -146 414 -146q128 0 209 26t123 86t57 134t15 192v164q-122 -222 -390 -222q-216 0 -364 154t-148 368zM222 512q0 -170 115 -295 t275 -125t275 125t115 295t-115 295t-275 125t-275 -125t-115 -295z" />
<glyph unicode="h" horiz-adv-x="1330" d="M100 0v100h144v1348h-144v100h266v-732q170 218 374 218q96 0 164 -25t105 -63t57 -103t25 -122t5 -143v-478h134v-100h-400v100h144v426q0 226 -43 314t-191 88q-94 0 -202 -69t-172 -171v-588h144v-100h-410z" />
<glyph unicode="i" horiz-adv-x="648" d="M100 0v100h164v824h-144v100h266v-924h162v-100h-448zM204 1402q0 42 29 71t71 29t71 -29t29 -71t-29 -71t-71 -29t-71 29t-29 71z" />
<glyph unicode="j" horiz-adv-x="620" d="M-100 -244h100v-156h134q108 0 144 87t36 287v950h-144v100h266v-1046q0 -250 -68 -364t-234 -114h-234v256zM256 1402q0 42 29 71t71 29t71 -29t29 -71t-29 -71t-71 -29t-71 29t-29 71z" />
<glyph unicode="k" horiz-adv-x="1196" d="M100 0v100h164v1348h-144v100h266v-920l334 296h-104v100h384v-100h-132l-364 -318l410 -506h182v-100h-264l-410 534l-36 -30v-404h162v-100h-448z" />
<glyph unicode="l" horiz-adv-x="648" d="M100 0v100h164v1348h-144v100h266v-1448h162v-100h-448z" />
<glyph unicode="m" horiz-adv-x="1878" d="M100 0v100h144v824h-144v100h266v-172q158 182 330 182q136 0 204 -49t92 -143q158 192 338 192q66 0 116 -14t83 -32t56 -57t34 -69t17 -88t7 -92t1 -104v-478h134v-100h-400v100h144v426q0 76 -1 111t-4 89t-10 77t-21 53t-34 42t-50 21t-72 9q-84 0 -175 -53 t-149 -135q4 -50 4 -162v-478h134v-100h-400v100h144v426q0 76 -1 111t-4 89t-10 77t-21 53t-34 42t-50 21t-72 9q-86 0 -178 -56t-152 -142v-630h144v-100h-410z" />
<glyph unicode="n" horiz-adv-x="1330" d="M100 0v100h144v824h-144v100h266v-208q170 218 374 218q96 0 164 -25t105 -63t57 -103t25 -122t5 -143v-478h134v-100h-400v100h144v426q0 226 -43 314t-191 88q-94 0 -202 -69t-172 -171v-588h144v-100h-410z" />
<glyph unicode="o" horiz-adv-x="1224" d="M100 512q0 218 150 370t362 152t362 -152t150 -370t-150 -370t-362 -152t-362 152t-150 370zM222 512q0 -176 114 -298t276 -122t276 122t114 298t-114 298t-276 122t-276 -122t-114 -298z" />
<glyph unicode="p" horiz-adv-x="1368" d="M100 -400h144v1324h-144v100h266v-212q122 222 390 222q216 0 364 -154t148 -368t-148 -368t-364 -154q-268 0 -390 222v-612h144v-100h-410v100zM366 512q0 -170 115 -295t275 -125t275 125t115 295t-115 295t-275 125t-275 -125t-115 -295z" />
<glyph unicode="q" horiz-adv-x="1368" d="M100 512q0 214 148 368t364 154q268 0 390 -222v212h266v-100h-144v-1324h144v-100h-410v100h144v612q-122 -222 -390 -222q-216 0 -364 154t-148 368zM222 512q0 -170 115 -295t275 -125t275 125t115 295t-115 295t-275 125t-275 -125t-115 -295z" />
<glyph unicode="r" horiz-adv-x="1024" d="M100 0v100h144v824h-144v100h266v-208q180 220 424 220q70 0 134 -12v-252h-100v146q-36 4 -56 4q-126 0 -232 -67t-170 -167v-588h144v-100h-410z" />
<glyph unicode="s" horiz-adv-x="1012" d="M100 50v252h100v-174q108 -38 238 -38q332 0 332 208q0 72 -84 123t-218 71q-176 28 -264 91t-88 187q0 120 104 192t254 72q178 0 348 -48v-252h-100v172q-120 32 -252 32q-92 0 -162 -46t-70 -120q0 -72 73 -111t215 -63q366 -60 366 -304q0 -92 -36 -155t-103 -94 t-140 -43t-171 -12q-188 0 -342 60z" />
<glyph unicode="t" horiz-adv-x="740" d="M100 924v100h158v258h122v-258h202v-100h-202v-590q0 -144 23 -193t95 -49q16 0 60 4l34 4l8 -98l-42 -6q-70 -10 -108 -10q-108 0 -150 71t-42 265v602h-158z" />
<glyph unicode="u" horiz-adv-x="1340" d="M100 924v100h266v-526q0 -226 43 -314t191 -88q94 0 202 69t172 171v588h-144v100h266v-924h144v-100h-266v208q-170 -218 -374 -218q-96 0 -164 25t-105 63t-57 103t-25 122t-5 143v478h-144z" />
<glyph unicode="v" horiz-adv-x="1200" d="M60 924v100h384v-100h-120l286 -786l270 786h-124v100h384v-100h-128l-342 -934h-116l-370 934h-124z" />
<glyph unicode="w" horiz-adv-x="1820" d="M60 924v100h384v-100h-120l268 -784l262 784h118l278 -784l246 784h-120v100h384v-100h-132l-318 -934h-120l-278 774l-262 -774h-116l-350 934h-124z" />
<glyph unicode="x" horiz-adv-x="1240" d="M100 0v100h128l316 410l-318 414h-126v100h384v-100h-104l240 -332l242 332h-106v100h384v-100h-128l-316 -410l318 -414h126v-100h-384v100h104l-240 332l-242 -332h106v-100h-384z" />
<glyph unicode="y" horiz-adv-x="1220" d="M100 924v100h384v-100h-118l308 -784l258 784h-136v100h384v-100h-124l-330 -980q-80 -242 -166 -343t-232 -101h-176v256h100v-156h76q94 0 159 83t125 265l10 34l-400 942h-122z" />
<glyph unicode="z" horiz-adv-x="1100" d="M100 0v100l702 824h-562v-156h-100v256h820v-100l-702 -824h642v156h100v-256h-900z" />
<glyph unicode="{" horiz-adv-x="578" d="M100 572v88q82 0 108 35t26 119v514v94t12 60t20 39t45 18t66 9h101v-80q-100 0 -122 -19t-22 -121v-512q0 -126 -27 -164t-91 -38q64 -2 91 -40t27 -164v-510q0 -102 22 -121t122 -19v-80h-101t-66 9t-45 18t-20 39t-12 60v94v512q0 86 -27 123t-107 37z" />
<glyph unicode="|" d="M260 -500v2048h80v-2048h-80z" />
<glyph unicode="}" horiz-adv-x="578" d="M100 -240q100 0 122 19t22 121v510q0 126 27 164t91 40q-64 0 -91 38t-27 164v512q0 102 -22 121t-122 19v80h101t66 -9t45 -18t20 -39t12 -60v-94v-514q0 -84 26 -119t108 -35v-88q-80 0 -107 -37t-27 -123v-512v-94t-12 -60t-20 -39t-45 -18t-66 -9h-101v80z" />
<glyph unicode="~" horiz-adv-x="1200" d="M100 540q114 108 224 132t198 -7t172 -66t176 -28t180 89l50 -60q-114 -108 -224 -132t-198 7t-172 66t-176 28t-180 -89z" />
<glyph unicode="&#xa1;" d="M200 934q0 42 29 71t71 29t71 -29t29 -71t-29 -71t-71 -29t-71 29t-29 71zM210 -426l48 986h84l48 -986h-180z" />
<glyph unicode="&#xa2;" horiz-adv-x="1098" d="M100 512q0 206 131 350t329 168v140h80v-136q192 -2 342 -132l-66 -82q-132 106 -276 112v-840q160 6 290 132l68 -74q-152 -154 -358 -160v-142h-80v146q-198 24 -329 168t-131 350zM222 512q0 -160 97 -275t241 -139v828q-144 -24 -241 -139t-97 -275z" />
<glyph unicode="&#xa3;" horiz-adv-x="992" d="M60 0v100h144v358h-112v80h112v104q0 392 316 392q72 0 133 -13t89 -25t90 -42v-256h-100v196q-76 36 -212 36q-60 0 -101 -24t-60 -70t-26 -93t-7 -109v-96h286v-80h-286v-358h506v156h100v-256h-872z" />
<glyph unicode="&#xa5;" horiz-adv-x="1000" d="M0 924v100h390v-100h-130l258 -448l232 448h-134v100h384v-100h-128l-254 -472h234v-80h-276v-88h276v-80h-276v-104h144v-100h-410v100h144v104h-276v80h276v88h-276v80h228l-282 472h-124z" />
<glyph unicode="&#xa8;" horiz-adv-x="1360" d="M400 1360q0 42 29 71t71 29t71 -29t29 -71t-29 -71t-71 -29t-71 29t-29 71zM760 1360q0 42 29 71t71 29t71 -29t29 -71t-29 -71t-71 -29t-71 29t-29 71z" />
<glyph unicode="&#xab;" horiz-adv-x="800" d="M100 588l150 296h120l-150 -296l150 -296h-120zM430 588l150 296h120l-150 -296l150 -296h-120z" />
<glyph unicode="&#xac;" horiz-adv-x="1080" d="M100 530v80h880v-440h-80v360h-800z" />
<glyph unicode="&#xad;" d="M100 530v100h400v-100h-400z" />
<glyph unicode="&#xaf;" horiz-adv-x="1364" d="M392 1252v80h580v-80h-580z" />
<glyph unicode="&#xb0;" horiz-adv-x="760" d="M140 1220q0 100 70 170t170 70t170 -70t70 -170t-70 -170t-170 -70t-170 70t-70 170zM212 1220q0 -68 50 -118t118 -50t118 50t50 118t-50 118t-118 50t-118 -50t-50 -118z" />
<glyph unicode="&#xb1;" horiz-adv-x="1000" d="M100 170v80h800v-80h-800zM100 590v80h360v260h80v-260h360v-80h-360v-260h-80v260h-360z" />
<glyph unicode="&#xb5;" horiz-adv-x="1330" d="M92 -400h142v1324h-142v100h264v-526q0 -226 43 -314t191 -88q94 0 202 69t172 171v588h-144v100h266v-924h144v-100h-266v208q-170 -218 -374 -218q-152 0 -234 60v-450h146v-100h-410v100z" />
<glyph unicode="&#xb7;" d="M200 608q0 42 29 71t71 29t71 -29t29 -71t-29 -71t-71 -29t-71 29t-29 71z" />
<glyph unicode="&#xb8;" horiz-adv-x="1100" d="M384 -274l30 44q46 -30 122 -30q32 0 56 20t24 50q0 28 -21 47t-51 19q-52 0 -94 -16l-38 44l144 170l28 -24l-112 -128q32 12 70 12q70 0 122 -32t52 -92t-55 -95t-125 -35q-94 0 -152 46z" />
<glyph unicode="&#xbb;" horiz-adv-x="800" d="M100 292l150 296l-150 296h120l150 -296l-150 -296h-120zM430 292l150 296l-150 296h120l150 -296l-150 -296h-120z" />
<glyph unicode="&#xbf;" horiz-adv-x="966" d="M60 -88q0 76 33 141t86 119t110 107t113 126t86 155h84q-14 -94 -79 -189t-133 -159t-124 -145t-56 -155q0 -246 318 -246q194 0 308 48v198h100v-256q-192 -92 -408 -92q-204 0 -321 84t-117 264zM430 934q0 42 29 71t71 29t71 -29t29 -71t-29 -71t-71 -29t-71 29 t-29 71z" />
<glyph unicode="&#xc0;" horiz-adv-x="1380" d="M0 0v100h122l510 1362h116l514 -1362h118v-100h-384v100h120l-148 420h-562l-150 -420h128v-100h-384zM416 1826v30h188l128 -244v-28h-84zM442 620h490l-242 688z" />
<glyph unicode="&#xc1;" horiz-adv-x="1380" d="M0 0v100h122l510 1362h116l514 -1362h118v-100h-384v100h120l-148 420h-562l-150 -420h128v-100h-384zM442 620h490l-242 688zM648 1584v28l128 244h188v-30l-232 -242h-84z" />
<glyph unicode="&#xc2;" horiz-adv-x="1380" d="M0 0v100h122l510 1362h116l514 -1362h118v-100h-384v100h120l-148 420h-562l-150 -420h128v-100h-384zM406 1646l248 250h72l248 -250l-58 -62l-226 174l-226 -174zM442 620h490l-242 688z" />
<glyph unicode="&#xc3;" horiz-adv-x="1380" d="M0 0v100h122l510 1362h116l514 -1362h118v-100h-384v100h120l-148 420h-562l-150 -420h128v-100h-384zM326 1670q76 74 140 106t110 28t87 -23t78 -41t75 -34t86 4t102 68l50 -60q-76 -74 -140 -106t-110 -28t-87 23t-78 41t-75 34t-86 -4t-102 -68zM442 620h490 l-242 688z" />
<glyph unicode="&#xc4;" horiz-adv-x="1380" d="M0 0v100h122l510 1362h116l514 -1362h118v-100h-384v100h120l-148 420h-562l-150 -420h128v-100h-384zM410 1684q0 42 29 71t71 29t71 -29t29 -71t-29 -71t-71 -29t-71 29t-29 71zM442 620h490l-242 688zM770 1684q0 42 29 71t71 29t71 -29t29 -71t-29 -71t-71 -29 t-71 29t-29 71z" />
<glyph unicode="&#xc5;" horiz-adv-x="1380" d="M0 0v100h122l510 1362h116l514 -1362h118v-100h-384v100h120l-148 420h-562l-150 -420h128v-100h-384zM442 620h490l-242 688zM450 1686q0 100 70 170t170 70t170 -70t70 -170t-70 -170t-170 -70t-170 70t-70 170zM522 1686q0 -68 50 -118t118 -50t118 50t50 118t-50 118 t-118 50t-118 -50t-50 -118z" />
<glyph unicode="&#xc6;" horiz-adv-x="1968" d="M0 0v100h122l710 1350h1036v-256h-100v156h-734v-546h680v-100h-680v-604h734v156h100v-256h-1100v100h144v420h-440l-216 -420h128v-100h-384zM522 620h390v760z" />
<glyph unicode="&#xc7;" horiz-adv-x="1460" d="M100 726q0 312 211 523t521 211q314 0 524 -216l-68 -68q-202 184 -456 184q-258 0 -435 -184t-177 -450t177 -451t435 -185q254 0 460 190l68 -66q-214 -224 -528 -224h-32l-68 -78q32 12 70 12q70 0 122 -32t52 -92t-55 -95t-125 -35q-94 0 -152 46l30 44 q46 -30 122 -30q32 0 56 20t24 50q0 28 -21 47t-51 19q-52 0 -94 -16l-38 44l84 100q-284 28 -470 234t-186 498z" />
<glyph unicode="&#xc8;" horiz-adv-x="1300" d="M100 0v100h144v1250h-144v100h1100v-256h-100v156h-734v-546h680v-100h-680v-604h734v156h100v-256h-1100zM376 1824v30h188l128 -244v-28h-84z" />
<glyph unicode="&#xc9;" horiz-adv-x="1300" d="M100 0v100h144v1250h-144v100h1100v-256h-100v156h-734v-546h680v-100h-680v-604h734v156h100v-256h-1100zM608 1582v28l128 244h188v-30l-232 -242h-84z" />
<glyph unicode="&#xca;" horiz-adv-x="1300" d="M100 0v100h144v1250h-144v100h1100v-256h-100v156h-734v-546h680v-100h-680v-604h734v156h100v-256h-1100zM366 1644l248 250h72l248 -250l-58 -62l-226 174l-226 -174z" />
<glyph unicode="&#xcb;" horiz-adv-x="1300" d="M100 0v100h144v1250h-144v100h1100v-256h-100v156h-734v-546h680v-100h-680v-604h734v156h100v-256h-1100zM370 1682q0 42 29 71t71 29t71 -29t29 -71t-29 -71t-71 -29t-71 29t-29 71zM730 1682q0 42 29 71t71 29t71 -29t29 -71t-29 -71t-71 -29t-71 29t-29 71z" />
<glyph unicode="&#xcc;" horiz-adv-x="810" d="M130 1824v30h188l128 -244v-28h-84zM160 0v100h184v1250h-184v100h490v-100h-184v-1250h184v-100h-490z" />
<glyph unicode="&#xcd;" horiz-adv-x="810" d="M160 0v100h184v1250h-184v100h490v-100h-184v-1250h184v-100h-490zM362 1582v28l128 244h188v-30l-232 -242h-84z" />
<glyph unicode="&#xce;" horiz-adv-x="810" d="M120 1644l248 250h72l248 -250l-58 -62l-226 174l-226 -174zM160 0v100h184v1250h-184v100h490v-100h-184v-1250h184v-100h-490z" />
<glyph unicode="&#xcf;" horiz-adv-x="810" d="M124 1682q0 42 29 71t71 29t71 -29t29 -71t-29 -71t-71 -29t-71 29t-29 71zM160 0v100h184v1250h-184v100h490v-100h-184v-1250h184v-100h-490zM484 1682q0 42 29 71t71 29t71 -29t29 -71t-29 -71t-71 -29t-71 29t-29 71z" />
<glyph unicode="&#xd0;" horiz-adv-x="1510" d="M100 0v100h144v568h-144v80h144v602h-144v100h578q386 0 559 -180t173 -534q0 -358 -172 -547t-560 -189h-578zM366 100h312q326 0 464 162t138 474q0 308 -139 461t-463 153h-312v-602h322v-80h-322v-568z" />
<glyph unicode="&#xd1;" horiz-adv-x="1600" d="M100 0v100h146v1250h-146v100h354l782 -1316v1216h-146v100h410v-100h-144v-1350h-180l-810 1362v-1262h144v-100h-410zM436 1668q76 74 140 106t110 28t87 -23t78 -41t75 -34t86 4t102 68l50 -60q-76 -74 -140 -106t-110 -28t-87 23t-78 41t-75 34t-86 -4t-102 -68z" />
<glyph unicode="&#xd2;" horiz-adv-x="1664" d="M100 726q0 312 211 523t521 211t521 -211t211 -523t-211 -524t-521 -212t-521 212t-211 524zM220 726q0 -266 177 -451t435 -185t435 185t177 451t-177 450t-435 184t-435 -184t-177 -450zM558 1824v30h188l128 -244v-28h-84z" />
<glyph unicode="&#xd3;" horiz-adv-x="1664" d="M100 726q0 312 211 523t521 211t521 -211t211 -523t-211 -524t-521 -212t-521 212t-211 524zM220 726q0 -266 177 -451t435 -185t435 185t177 451t-177 450t-435 184t-435 -184t-177 -450zM790 1582v28l128 244h188v-30l-232 -242h-84z" />
<glyph unicode="&#xd4;" horiz-adv-x="1664" d="M100 726q0 312 211 523t521 211t521 -211t211 -523t-211 -524t-521 -212t-521 212t-211 524zM220 726q0 -266 177 -451t435 -185t435 185t177 451t-177 450t-435 184t-435 -184t-177 -450zM548 1644l248 250h72l248 -250l-58 -62l-226 174l-226 -174z" />
<glyph unicode="&#xd5;" horiz-adv-x="1664" d="M100 726q0 312 211 523t521 211t521 -211t211 -523t-211 -524t-521 -212t-521 212t-211 524zM220 726q0 -266 177 -451t435 -185t435 185t177 451t-177 450t-435 184t-435 -184t-177 -450zM468 1668q76 74 140 106t110 28t87 -23t78 -41t75 -34t86 4t102 68l50 -60 q-76 -74 -140 -106t-110 -28t-87 23t-78 41t-75 34t-86 -4t-102 -68z" />
<glyph unicode="&#xd6;" horiz-adv-x="1664" d="M100 726q0 312 211 523t521 211t521 -211t211 -523t-211 -524t-521 -212t-521 212t-211 524zM220 726q0 -266 177 -451t435 -185t435 185t177 451t-177 450t-435 184t-435 -184t-177 -450zM552 1682q0 42 29 71t71 29t71 -29t29 -71t-29 -71t-71 -29t-71 29t-29 71z M912 1682q0 42 29 71t71 29t71 -29t29 -71t-29 -71t-71 -29t-71 29t-29 71z" />
<glyph unicode="&#xd7;" horiz-adv-x="1000" d="M188 316l256 254l-256 254l58 58l254 -256l254 256l58 -58l-256 -254l256 -254l-58 -58l-254 256l-254 -256z" />
<glyph unicode="&#xd8;" horiz-adv-x="1664" d="M100 726q0 312 211 523t521 211q286 0 490 -182l92 92l56 -58l-90 -90q184 -206 184 -496q0 -312 -211 -524t-521 -212q-292 0 -496 188l-102 -104l-56 58l102 102q-180 206 -180 492zM220 726q0 -232 142 -410l882 882q-174 162 -412 162q-258 0 -435 -184t-177 -450z M416 256q172 -166 416 -166q258 0 435 185t177 451q0 240 -146 414z" />
<glyph unicode="&#xd9;" horiz-adv-x="1438" d="M60 1350v100h410v-100h-142v-764q0 -152 27 -253t83 -152t122 -70t162 -19q94 0 159 19t121 70t84 152t28 253v764h-146v100h410v-100h-144v-764q0 -178 -39 -299t-113 -184t-160 -88t-200 -25q-116 0 -203 25t-162 88t-114 184t-39 299v764h-144zM446 1824v30h188 l128 -244v-28h-84z" />
<glyph unicode="&#xda;" horiz-adv-x="1438" d="M60 1350v100h410v-100h-142v-764q0 -152 27 -253t83 -152t122 -70t162 -19q94 0 159 19t121 70t84 152t28 253v764h-146v100h410v-100h-144v-764q0 -178 -39 -299t-113 -184t-160 -88t-200 -25q-116 0 -203 25t-162 88t-114 184t-39 299v764h-144zM678 1582v28l128 244 h188v-30l-232 -242h-84z" />
<glyph unicode="&#xdb;" horiz-adv-x="1438" d="M60 1350v100h410v-100h-142v-764q0 -152 27 -253t83 -152t122 -70t162 -19q94 0 159 19t121 70t84 152t28 253v764h-146v100h410v-100h-144v-764q0 -178 -39 -299t-113 -184t-160 -88t-200 -25q-116 0 -203 25t-162 88t-114 184t-39 299v764h-144zM436 1644l248 250h72 l248 -250l-58 -62l-226 174l-226 -174z" />
<glyph unicode="&#xdc;" horiz-adv-x="1438" d="M60 1350v100h410v-100h-142v-764q0 -152 27 -253t83 -152t122 -70t162 -19q94 0 159 19t121 70t84 152t28 253v764h-146v100h410v-100h-144v-764q0 -178 -39 -299t-113 -184t-160 -88t-200 -25q-116 0 -203 25t-162 88t-114 184t-39 299v764h-144zM440 1682q0 42 29 71 t71 29t71 -29t29 -71t-29 -71t-71 -29t-71 29t-29 71zM800 1682q0 42 29 71t71 29t71 -29t29 -71t-29 -71t-71 -29t-71 29t-29 71z" />
<glyph unicode="&#xdd;" horiz-adv-x="1320" d="M0 1350v100h390v-100h-120l408 -676l382 676h-124v100h384v-100h-128l-456 -790v-460h144v-100h-410v100h144v460l-490 790h-124zM618 1582v28l128 244h188v-30l-232 -242h-84z" />
<glyph unicode="&#xde;" horiz-adv-x="1268" d="M100 0v100h144v1250h-144v100h410v-100h-144v-194h318q272 0 398 -97t126 -295q0 -190 -130 -289t-376 -99h-336v-276h144v-100h-410zM366 476h336q174 0 279 71t105 217q0 292 -402 292h-318v-580z" />
<glyph unicode="&#xdf;" horiz-adv-x="1380" d="M100 0v100h164v824h-164v100h164v46q0 250 68 364t234 114h42q168 0 247 -97t79 -267q0 -106 -32 -246q-94 0 -165 -46t-71 -120t65 -113t203 -61q346 -56 346 -304q0 -92 -33 -155t-96 -94t-134 -43t-167 -12q-102 0 -164 11t-158 49v252h100v-174q108 -38 218 -38 q312 0 312 208q0 74 -76 124t-206 70q-172 26 -252 89t-80 189q0 108 85 177t215 83q12 78 12 140q0 306 -248 306h-42q-106 0 -143 -98t-37 -304v-1074h-286z" />
<glyph unicode="&#xe0;" horiz-adv-x="1366" d="M100 512q0 214 148 368t364 154q268 0 390 -222v212h122v-924h142v-100h-264v212q-122 -222 -390 -222q-216 0 -364 154t-148 368zM222 512q0 -170 115 -295t275 -125t275 125t115 295t-115 295t-275 125t-275 -125t-115 -295zM394 1398v30h188l128 -244v-28h-84z" />
<glyph unicode="&#xe1;" horiz-adv-x="1366" d="M100 512q0 214 148 368t364 154q268 0 390 -222v212h122v-924h142v-100h-264v212q-122 -222 -390 -222q-216 0 -364 154t-148 368zM222 512q0 -170 115 -295t275 -125t275 125t115 295t-115 295t-275 125t-275 -125t-115 -295zM570 1156v28l128 244h188v-30l-232 -242 h-84z" />
<glyph unicode="&#xe2;" horiz-adv-x="1366" d="M100 512q0 214 148 368t364 154q268 0 390 -222v212h122v-924h142v-100h-264v212q-122 -222 -390 -222q-216 0 -364 154t-148 368zM222 512q0 -170 115 -295t275 -125t275 125t115 295t-115 295t-275 125t-275 -125t-115 -295zM360 1218l248 250h72l248 -250l-58 -62 l-226 174l-226 -174z" />
<glyph unicode="&#xe3;" horiz-adv-x="1366" d="M100 512q0 214 148 368t364 154q268 0 390 -222v212h122v-924h142v-100h-264v212q-122 -222 -390 -222q-216 0 -364 154t-148 368zM222 512q0 -170 115 -295t275 -125t275 125t115 295t-115 295t-275 125t-275 -125t-115 -295zM282 1242q76 74 140 106t110 28t87 -23 t78 -41t75 -34t86 4t102 68l50 -60q-76 -74 -140 -106t-110 -28t-87 23t-78 41t-75 34t-86 -4t-102 -68z" />
<glyph unicode="&#xe4;" horiz-adv-x="1366" d="M100 512q0 214 148 368t364 154q268 0 390 -222v212h122v-924h142v-100h-264v212q-122 -222 -390 -222q-216 0 -364 154t-148 368zM222 512q0 -170 115 -295t275 -125t275 125t115 295t-115 295t-275 125t-275 -125t-115 -295zM372 1256q0 42 29 71t71 29t71 -29t29 -71 t-29 -71t-71 -29t-71 29t-29 71zM732 1256q0 42 29 71t71 29t71 -29t29 -71t-29 -71t-71 -29t-71 29t-29 71z" />
<glyph unicode="&#xe5;" horiz-adv-x="1366" d="M100 512q0 214 148 368t364 154q268 0 390 -222v212h122v-924h142v-100h-264v212q-122 -222 -390 -222q-216 0 -364 154t-148 368zM222 512q0 -170 115 -295t275 -125t275 125t115 295t-115 295t-275 125t-275 -125t-115 -295zM372 1396q0 100 70 170t170 70t170 -70 t70 -170t-70 -170t-170 -70t-170 70t-70 170zM444 1396q0 -68 50 -118t118 -50t118 50t50 118t-50 118t-118 50t-118 -50t-50 -118z" />
<glyph unicode="&#xe6;" horiz-adv-x="1952" d="M100 238q0 186 193 270t579 84v42q0 116 -80 206t-202 90q-160 0 -298 -40v-192h-100v256q168 80 398 80q130 0 224 -62t142 -162q66 104 173 164t237 60q222 0 354 -131t132 -373q0 -24 -2 -38h-856q6 -176 118 -288t278 -112q214 0 342 202l92 -54q-70 -114 -183 -182 t-251 -68q-154 0 -278 77t-188 209q-54 -138 -172 -212t-340 -74q-312 0 -312 248zM228 238q0 -68 51 -108t135 -40q458 0 458 402q-340 0 -492 -56t-152 -198zM1000 592h730q-14 156 -114 248t-250 92q-142 0 -243 -95t-123 -245z" />
<glyph unicode="&#xe7;" horiz-adv-x="1098" d="M100 512q0 224 153 373t375 149q202 0 354 -132l-66 -82q-138 112 -288 112q-166 0 -286 -120t-120 -300t120 -300t286 -120t302 132l68 -74q-156 -160 -370 -160q-6 0 -19 1t-19 1l-70 -80q32 12 70 12q70 0 122 -32t52 -92t-55 -95t-125 -35q-94 0 -152 46l30 44 q46 -30 122 -30q32 0 56 20t24 50q0 28 -21 47t-51 19q-52 0 -94 -16l-38 44l86 102q-194 28 -320 171t-126 345z" />
<glyph unicode="&#xe8;" horiz-adv-x="1180" d="M100 512q0 220 141 371t353 151q222 0 354 -131t132 -373q0 -12 -2 -38h-856q6 -176 118 -288t278 -112q214 0 342 202l92 -54q-70 -114 -183 -182t-251 -68q-220 0 -369 148t-149 374zM228 592h730q-14 156 -114 248t-250 92q-142 0 -243 -95t-123 -245zM320 1398v30 h188l128 -244v-28h-84z" />
<glyph unicode="&#xe9;" horiz-adv-x="1180" d="M100 512q0 220 141 371t353 151q222 0 354 -131t132 -373q0 -12 -2 -38h-856q6 -176 118 -288t278 -112q214 0 342 202l92 -54q-70 -114 -183 -182t-251 -68q-220 0 -369 148t-149 374zM228 592h730q-14 156 -114 248t-250 92q-142 0 -243 -95t-123 -245zM552 1156v28 l128 244h188v-30l-232 -242h-84z" />
<glyph unicode="&#xea;" horiz-adv-x="1180" d="M100 512q0 220 141 371t353 151q222 0 354 -131t132 -373q0 -12 -2 -38h-856q6 -176 118 -288t278 -112q214 0 342 202l92 -54q-70 -114 -183 -182t-251 -68q-220 0 -369 148t-149 374zM228 592h730q-14 156 -114 248t-250 92q-142 0 -243 -95t-123 -245zM310 1218 l248 250h72l248 -250l-58 -62l-226 174l-226 -174z" />
<glyph unicode="&#xeb;" horiz-adv-x="1180" d="M100 512q0 220 141 371t353 151q222 0 354 -131t132 -373q0 -12 -2 -38h-856q6 -176 118 -288t278 -112q214 0 342 202l92 -54q-70 -114 -183 -182t-251 -68q-220 0 -369 148t-149 374zM228 592h730q-14 156 -114 248t-250 92q-142 0 -243 -95t-123 -245zM314 1256 q0 42 29 71t71 29t71 -29t29 -71t-29 -71t-71 -29t-71 29t-29 71zM674 1256q0 42 29 71t71 29t71 -29t29 -71t-29 -71t-71 -29t-71 29t-29 71z" />
<glyph unicode="&#xec;" horiz-adv-x="648" d="M50 1398v30h188l128 -244v-28h-84zM100 0v100h164v824h-144v100h266v-924h162v-100h-448z" />
<glyph unicode="&#xed;" horiz-adv-x="648" d="M100 0v100h164v824h-144v100h266v-924h162v-100h-448zM282 1156v28l128 244h188v-30l-232 -242h-84z" />
<glyph unicode="&#xee;" horiz-adv-x="648" d="M20 1218l248 250h72l248 -250l-58 -62l-226 174l-226 -174zM100 0v100h164v824h-144v100h266v-924h162v-100h-448z" />
<glyph unicode="&#xef;" horiz-adv-x="648" d="M24 1256q0 42 29 71t71 29t71 -29t29 -71t-29 -71t-71 -29t-71 29t-29 71zM100 0v100h164v824h-144v100h266v-924h162v-100h-448zM384 1256q0 42 29 71t71 29t71 -29t29 -71t-29 -71t-71 -29t-71 29t-29 71z" />
<glyph unicode="&#xf0;" horiz-adv-x="1050" d="M100 400q0 186 106 293t286 107q102 0 190 -39t138 -97q-36 272 -192 468l-270 -156l-40 68l256 150q-110 116 -256 190l42 88q176 -78 310 -224l218 126l40 -70l-206 -118q228 -288 228 -684q0 -264 -127 -388t-313 -124q-170 0 -290 120t-120 290zM222 400 q0 -130 84 -220t204 -90q150 0 234 105t84 275q0 84 -108 162t-228 78q-112 0 -191 -84t-79 -226z" />
<glyph unicode="&#xf1;" horiz-adv-x="1330" d="M100 0v100h144v824h-144v100h266v-208q170 218 374 218q96 0 164 -25t105 -63t57 -103t25 -122t5 -143v-478h134v-100h-400v100h144v426q0 226 -43 314t-191 88q-94 0 -202 -69t-172 -171v-588h144v-100h-410zM300 1242q76 74 140 106t110 28t87 -23t78 -41t75 -34t86 4 t102 68l50 -60q-76 -74 -140 -106t-110 -28t-87 23t-78 41t-75 34t-86 -4t-102 -68z" />
<glyph unicode="&#xf2;" horiz-adv-x="1224" d="M100 512q0 218 150 370t362 152t362 -152t150 -370t-150 -370t-362 -152t-362 152t-150 370zM222 512q0 -176 114 -298t276 -122t276 122t114 298t-114 298t-276 122t-276 -122t-114 -298zM338 1398v30h188l128 -244v-28h-84z" />
<glyph unicode="&#xf3;" horiz-adv-x="1224" d="M100 512q0 218 150 370t362 152t362 -152t150 -370t-150 -370t-362 -152t-362 152t-150 370zM222 512q0 -176 114 -298t276 -122t276 122t114 298t-114 298t-276 122t-276 -122t-114 -298zM570 1156v28l128 244h188v-30l-232 -242h-84z" />
<glyph unicode="&#xf4;" horiz-adv-x="1224" d="M100 512q0 218 150 370t362 152t362 -152t150 -370t-150 -370t-362 -152t-362 152t-150 370zM222 512q0 -176 114 -298t276 -122t276 122t114 298t-114 298t-276 122t-276 -122t-114 -298zM328 1218l248 250h72l248 -250l-58 -62l-226 174l-226 -174z" />
<glyph unicode="&#xf5;" horiz-adv-x="1224" d="M100 512q0 218 150 370t362 152t362 -152t150 -370t-150 -370t-362 -152t-362 152t-150 370zM222 512q0 -176 114 -298t276 -122t276 122t114 298t-114 298t-276 122t-276 -122t-114 -298zM248 1242q76 74 140 106t110 28t87 -23t78 -41t75 -34t86 4t102 68l50 -60 q-76 -74 -140 -106t-110 -28t-87 23t-78 41t-75 34t-86 -4t-102 -68z" />
<glyph unicode="&#xf6;" horiz-adv-x="1224" d="M100 512q0 218 150 370t362 152t362 -152t150 -370t-150 -370t-362 -152t-362 152t-150 370zM222 512q0 -176 114 -298t276 -122t276 122t114 298t-114 298t-276 122t-276 -122t-114 -298zM332 1256q0 42 29 71t71 29t71 -29t29 -71t-29 -71t-71 -29t-71 29t-29 71z M692 1256q0 42 29 71t71 29t71 -29t29 -71t-29 -71t-71 -29t-71 29t-29 71z" />
<glyph unicode="&#xf7;" horiz-adv-x="1000" d="M100 530v80h800v-80h-800zM400 308q0 42 29 71t71 29t71 -29t29 -71t-29 -71t-71 -29t-71 29t-29 71zM400 828q0 42 29 71t71 29t71 -29t29 -71t-29 -71t-71 -29t-71 29t-29 71z" />
<glyph unicode="&#xf8;" horiz-adv-x="1224" d="M100 512q0 218 150 370t362 152q192 0 338 -130l116 114l56 -56l-116 -116q118 -144 118 -334q0 -218 -150 -370t-362 -152q-194 0 -336 126l-118 -116l-56 56l118 118q-120 142 -120 338zM222 512q0 -144 80 -256l570 570q-110 106 -260 106q-162 0 -276 -122t-114 -298 zM354 194q108 -102 258 -102q162 0 276 122t114 298q0 140 -78 254z" />
<glyph unicode="&#xf9;" horiz-adv-x="1340" d="M100 924v100h266v-526q0 -226 43 -314t191 -88q94 0 202 69t172 171v588h-144v100h266v-924h144v-100h-266v208q-170 -218 -374 -218q-96 0 -164 25t-105 63t-57 103t-25 122t-5 143v478h-144zM374 1398v30h188l128 -244v-28h-84z" />
<glyph unicode="&#xfa;" horiz-adv-x="1340" d="M100 924v100h266v-526q0 -226 43 -314t191 -88q94 0 202 69t172 171v588h-144v100h266v-924h144v-100h-266v208q-170 -218 -374 -218q-96 0 -164 25t-105 63t-57 103t-25 122t-5 143v478h-144zM578 1156v28l128 244h188v-30l-232 -242h-84z" />
<glyph unicode="&#xfb;" horiz-adv-x="1340" d="M100 924v100h266v-526q0 -226 43 -314t191 -88q94 0 202 69t172 171v588h-144v100h266v-924h144v-100h-266v208q-170 -218 -374 -218q-96 0 -164 25t-105 63t-57 103t-25 122t-5 143v478h-144zM364 1218l248 250h72l248 -250l-58 -62l-226 174l-226 -174z" />
<glyph unicode="&#xfc;" horiz-adv-x="1340" d="M100 924v100h266v-526q0 -226 43 -314t191 -88q94 0 202 69t172 171v588h-144v100h266v-924h144v-100h-266v208q-170 -218 -374 -218q-96 0 -164 25t-105 63t-57 103t-25 122t-5 143v478h-144zM364 1256q0 42 29 71t71 29t71 -29t29 -71t-29 -71t-71 -29t-71 29t-29 71z M724 1256q0 42 29 71t71 29t71 -29t29 -71t-29 -71t-71 -29t-71 29t-29 71z" />
<glyph unicode="&#xfd;" horiz-adv-x="1220" d="M100 924v100h384v-100h-118l308 -784l258 784h-136v100h384v-100h-124l-330 -980q-80 -242 -166 -343t-232 -101h-176v256h100v-156h76q94 0 159 83t125 265l10 34l-400 942h-122zM598 1156v28l128 244h188v-30l-232 -242h-84z" />
<glyph unicode="&#xfe;" horiz-adv-x="1368" d="M100 -400h144v1848h-144v100h266v-736q122 222 390 222q216 0 364 -154t148 -368t-148 -368t-364 -154q-268 0 -390 222v-612h144v-100h-410v100zM366 512q0 -170 115 -295t275 -125t275 125t115 295t-115 295t-275 125t-275 -125t-115 -295z" />
<glyph unicode="&#xff;" horiz-adv-x="1220" d="M100 924v100h384v-100h-118l308 -784l258 784h-136v100h384v-100h-124l-330 -980q-80 -242 -166 -343t-232 -101h-176v256h100v-156h76q94 0 159 83t125 265l10 34l-400 942h-122zM360 1256q0 42 29 71t71 29t71 -29t29 -71t-29 -71t-71 -29t-71 29t-29 71zM720 1256 q0 42 29 71t71 29t71 -29t29 -71t-29 -71t-71 -29t-71 29t-29 71z" />
<glyph unicode="&#x152;" horiz-adv-x="2062" d="M100 736q0 354 173 534t559 180h1130v-256h-100v156h-734v-546h680v-100h-680v-604h734v156h100v-256h-1130q-388 0 -560 189t-172 547zM230 736q0 -312 138 -474t464 -162h174v1250h-174q-324 0 -463 -153t-139 -461z" />
<glyph unicode="&#x153;" horiz-adv-x="2042" d="M100 512q0 218 150 370t362 152q146 0 258 -73t170 -197q54 126 161 198t255 72q222 0 354 -131t132 -373q0 -24 -2 -38h-846q6 -178 114 -289t272 -111q214 0 342 202l92 -54q-70 -114 -183 -182t-251 -68q-154 0 -268 72t-170 200q-58 -126 -170 -199t-260 -73 q-212 0 -362 152t-150 370zM222 512q0 -176 114 -298t276 -122t271 121t109 299t-109 299t-271 121t-276 -122t-114 -298zM1100 592h720q-14 156 -114 248t-250 92q-142 0 -238 -95t-118 -245z" />
<glyph unicode="&#x178;" horiz-adv-x="1320" d="M0 1350v100h390v-100h-120l408 -676l382 676h-124v100h384v-100h-128l-456 -790v-460h144v-100h-410v100h144v460l-490 790h-124zM380 1682q0 42 29 71t71 29t71 -29t29 -71t-29 -71t-71 -29t-71 29t-29 71zM740 1682q0 42 29 71t71 29t71 -29t29 -71t-29 -71t-71 -29 t-71 29t-29 71z" />
<glyph unicode="&#x2c6;" horiz-adv-x="1360" d="M396 1210l248 250h72l248 -250l-58 -62l-226 174l-226 -174z" />
<glyph unicode="&#x2dc;" horiz-adv-x="1360" d="M316 1326q76 74 140 106t110 28t87 -23t78 -41t75 -34t86 4t102 68l50 -60q-76 -74 -140 -106t-110 -28t-87 23t-78 41t-75 34t-86 -4t-102 -68z" />
<glyph unicode="&#x2000;" horiz-adv-x="963" />
<glyph unicode="&#x2001;" horiz-adv-x="1926" />
<glyph unicode="&#x2002;" horiz-adv-x="963" />
<glyph unicode="&#x2003;" horiz-adv-x="1926" />
<glyph unicode="&#x2004;" horiz-adv-x="642" />
<glyph unicode="&#x2005;" horiz-adv-x="481" />
<glyph unicode="&#x2006;" horiz-adv-x="321" />
<glyph unicode="&#x2007;" horiz-adv-x="321" />
<glyph unicode="&#x2008;" horiz-adv-x="240" />
<glyph unicode="&#x2009;" horiz-adv-x="385" />
<glyph unicode="&#x200a;" horiz-adv-x="107" />
<glyph unicode="&#x2010;" d="M100 530v100h400v-100h-400z" />
<glyph unicode="&#x2011;" d="M100 530v100h400v-100h-400z" />
<glyph unicode="&#x2012;" d="M100 530v100h400v-100h-400z" />
<glyph unicode="&#x2013;" horiz-adv-x="1000" d="M100 530v80h800v-80h-800z" />
<glyph unicode="&#x2014;" horiz-adv-x="1800" d="M100 530v80h1600v-80h-1600z" />
<glyph unicode="&#x2018;" horiz-adv-x="560" d="M180 1150q0 174 144 300l40 -40q-68 -82 -68 -128q0 -24 16 -32q68 -36 68 -100q0 -42 -29 -71t-71 -29t-71 29t-29 71z" />
<glyph unicode="&#x2019;" horiz-adv-x="560" d="M180 1360q0 42 29 71t71 29t71 -29t29 -71q0 -174 -144 -300l-40 40q68 82 68 128q0 24 -16 32q-68 36 -68 100z" />
<glyph unicode="&#x201c;" horiz-adv-x="860" d="M180 1150q0 174 144 300l40 -40q-68 -82 -68 -128q0 -24 16 -32q68 -36 68 -100q0 -42 -29 -71t-71 -29t-71 29t-29 71zM480 1150q0 174 144 300l40 -40q-68 -82 -68 -128q0 -24 16 -32q68 -36 68 -100q0 -42 -29 -71t-71 -29t-71 29t-29 71z" />
<glyph unicode="&#x201d;" horiz-adv-x="860" d="M180 1360q0 42 29 71t71 29t71 -29t29 -71q0 -174 -144 -300l-40 40q68 82 68 128q0 24 -16 32q-68 36 -68 100zM480 1360q0 42 29 71t71 29t71 -29t29 -71q0 -174 -144 -300l-40 40q68 82 68 128q0 24 -16 32q-68 36 -68 100z" />
<glyph unicode="&#x2022;" horiz-adv-x="720" d="M160 608q0 82 59 141t141 59t141 -59t59 -141t-59 -141t-141 -59t-141 59t-59 141z" />
<glyph unicode="&#x2026;" horiz-adv-x="1800" d="M200 90q0 42 29 71t71 29t71 -29t29 -71t-29 -71t-71 -29t-71 29t-29 71zM800 90q0 42 29 71t71 29t71 -29t29 -71t-29 -71t-71 -29t-71 29t-29 71zM1400 90q0 42 29 71t71 29t71 -29t29 -71t-29 -71t-71 -29t-71 29t-29 71z" />
<glyph unicode="&#x202f;" horiz-adv-x="385" />
<glyph unicode="&#x2039;" horiz-adv-x="470" d="M100 588l150 296h120l-150 -296l150 -296h-120z" />
<glyph unicode="&#x203a;" horiz-adv-x="470" d="M100 292l150 296l-150 296h120l150 -296l-150 -296h-120z" />
<glyph unicode="&#x205f;" horiz-adv-x="481" />
<glyph unicode="&#x20ac;" horiz-adv-x="1198" d="M100 370v80h104q-4 40 -4 62q0 24 4 68h-104v80h120q46 168 186 271t322 103q202 0 354 -132l-66 -82q-138 112 -288 112q-128 0 -233 -75t-149 -197h506v-80h-526q-4 -22 -4 -68q0 -22 4 -62h450v-80h-432q42 -126 148 -202t236 -76q166 0 302 132l68 -74 q-156 -160 -370 -160q-182 0 -323 105t-187 275h-118z" />
<glyph unicode="&#x25fc;" horiz-adv-x="1020" d="M0 0v1020h1020v-1020h-1020z" />
</font>
</defs>
</svg>
