<?xml version="1.0" standalone="no"?>
<!DOCTYPE svg PUBLIC "-//W3C//DTD SVG 1.1//EN" "http://www.w3.org/Graphics/SVG/1.1/DTD/svg11.dtd" >
<svg xmlns="http://www.w3.org/2000/svg">
<metadata></metadata>
<defs>
<font id="sugarcubesbold" horiz-adv-x="600" >
<font-face units-per-em="2048" ascent="1548" descent="-500" />
<missing-glyph horiz-adv-x="720" />
<glyph horiz-adv-x="2048" />
<glyph horiz-adv-x="2048" />
<glyph unicode="&#xd;" horiz-adv-x="682" />
<glyph unicode=" "  horiz-adv-x="720" />
<glyph unicode="&#x09;" horiz-adv-x="720" />
<glyph unicode="&#xa0;" horiz-adv-x="720" />
<glyph unicode="!" horiz-adv-x="720" d="M200 150q0 66 47 113t113 47t113 -47t47 -113t-47 -113t-113 -47t-113 47t-47 113zM222 1450h276l-58 -986h-160z" />
<glyph unicode="&#x22;" horiz-adv-x="940" d="M200 1450h240l-48 -390h-144zM500 1450h240l-48 -390h-144z" />
<glyph unicode="#" horiz-adv-x="1328" d="M0 410v160h280l98 294h-250v160h304l146 436l152 -52l-128 -384h334l142 426l152 -52l-126 -374h224v-160h-278l-98 -294h248v-160h-302l-152 -456l-152 52l136 404h-334l-150 -446l-152 52l132 394h-226zM450 570h332l100 294h-334z" />
<glyph unicode="$" horiz-adv-x="992" d="M100 50v252h184v-118q80 -10 152 -10v276q-162 30 -241 100t-79 220q0 112 91 182t229 80v138h120v-138q126 -6 266 -46v-252h-184v110q-26 2 -82 6v-210q176 -32 256 -110t80 -236q0 -272 -336 -300v-146h-120v142q-184 0 -336 60zM336 772q0 -38 20 -63t80 -43v186 q-100 -12 -100 -80zM556 184q116 24 116 114q0 50 -25 80t-91 48v-242z" />
<glyph unicode="%" horiz-adv-x="1280" d="M100 792q0 100 70 170t170 70t170 -70t70 -170t-70 -170t-170 -70t-170 70t-70 170zM222 792q0 -48 35 -83t83 -35t83 35t35 83t-35 83t-83 35t-83 -35t-35 -83zM286 44l586 1004l120 -74l-586 -1004zM700 230q0 100 70 170t170 70t170 -70t70 -170t-70 -170t-170 -70 t-170 70t-70 170zM822 230q0 -48 35 -83t83 -35t83 35t35 83t-35 83t-83 35t-83 -35t-35 -83z" />
<glyph unicode="&#x26;" horiz-adv-x="1466" d="M100 398q0 66 23 123t79 114t89 84t115 87q-176 228 -176 354q0 130 87 215t237 85q156 0 244 -85t88 -223q0 -110 -58 -192t-164 -162q10 -14 26 -34l260 -336q70 114 80 216h-102v184h410v-184h-130q-34 -194 -148 -360l76 -100h230v-184h-348l-98 130 q-172 -140 -384 -140q-176 0 -306 118t-130 290zM336 396q0 -116 57 -169t143 -53q148 0 274 100l-302 400l-4 4q-168 -136 -168 -282zM450 1160q0 -84 110 -228q106 106 106 220q0 124 -112 124q-44 0 -74 -32t-30 -84z" />
<glyph unicode="'" horiz-adv-x="640" d="M200 1450h240l-48 -390h-144z" />
<glyph unicode="(" horiz-adv-x="680" d="M184 614q0 392 196 934h160q-156 -508 -156 -934q0 -428 156 -934h-160q-196 542 -196 934z" />
<glyph unicode=")" horiz-adv-x="680" d="M140 -320q156 506 156 934q0 426 -156 934h160q196 -542 196 -934t-196 -934h-160z" />
<glyph unicode="*" horiz-adv-x="722" d="M54 1272l58 138l206 -118l-8 238l150 -14l-50 -232l224 82l32 -146q-40 -4 -118 -13t-118 -13l146 -186l-128 -78l-96 218l-132 -198l-114 98l178 160z" />
<glyph unicode="+" horiz-adv-x="1000" d="M100 490v160h320v320h160v-320h320v-160h-320v-320h-160v320h-320z" />
<glyph unicode="," d="M140 150q0 66 47 113t113 47t113 -47t47 -113q0 -242 -194 -398l-62 64q68 74 68 142q0 26 -18 42q-6 6 -31 19t-40 24t-29 39t-14 68z" />
<glyph unicode="-" d="M100 530v170h400v-170h-400z" />
<glyph unicode="." d="M140 150q0 66 47 113t113 47t113 -47t47 -113t-47 -113t-113 -47t-113 47t-47 113z" />
<glyph unicode="/" horiz-adv-x="676" d="M-8 -116l540 1664l152 -52l-540 -1664z" />
<glyph unicode="0" horiz-adv-x="1224" d="M100 512q0 218 150 370t362 152t362 -152t150 -370t-150 -370t-362 -152t-362 152t-150 370zM320 512q0 -140 85 -239t207 -99t207 99t85 239t-85 239t-207 99t-207 -99t-85 -239z" />
<glyph unicode="1" horiz-adv-x="866" d="M160 0v184h164v656h-164v184h546v-184h-162v-656h162v-184h-546z" />
<glyph unicode="2" horiz-adv-x="1000" d="M100 0v184q106 64 151 92t142 97t144 117t88 116t41 130q0 60 -39 85t-131 25q-86 0 -172 -18v-150h-184v276q168 80 356 80q392 0 392 -290q0 -70 -38 -146t-91 -135t-125 -119t-123 -95t-103 -65h308v116h184v-300h-800z" />
<glyph unicode="3" horiz-adv-x="1056" d="M100 -160h184v-172h38q134 0 224 32t129 88t52 104t13 108q0 232 -282 232q-18 0 -58 -2v184q122 20 208 87t86 189q0 74 -43 116t-127 42q-100 0 -180 -16v-146h-184v276q150 72 364 72q186 0 287 -96t101 -248q0 -220 -198 -314q246 -86 246 -376q0 -228 -172 -366 t-552 -138q-40 0 -136 4v340z" />
<glyph unicode="4" horiz-adv-x="1230" d="M100 0v184l574 840h310v-840h186v-184h-186v-320h-220v320h-664zM322 184h442v646z" />
<glyph unicode="5" horiz-adv-x="1056" d="M100 -160h184v-168q140 0 237 32t141 89t61 112t17 125q0 146 -96 211t-294 65q-102 0 -190 -10v728h708v-354h-184v136h-340v-314q156 0 271 -30t180 -74t103 -109t50 -122t12 -127q0 -534 -720 -534q-90 0 -140 4v340z" />
<glyph unicode="6" horiz-adv-x="1050" d="M100 502q0 344 168 600t422 370l82 -162q-182 -94 -295 -234t-147 -386q84 110 228 110q180 0 286 -107t106 -293q0 -170 -120 -290t-290 -120q-186 0 -313 124t-127 388zM320 450q0 -122 57 -197t159 -75q80 0 137 65t57 157q0 102 -53 162t-129 60q-80 0 -154 -56 t-74 -116z" />
<glyph unicode="7" horiz-adv-x="900" d="M20 670v354h860v-188l-536 -1178l-200 110l516 1038h-456v-136h-184z" />
<glyph unicode="8" horiz-adv-x="1120" d="M100 410q0 128 69 225t185 145q-98 40 -151 122t-53 194q0 166 118 265t292 99t292 -99t118 -265q0 -112 -53 -194t-151 -122q116 -48 185 -145t69 -225q0 -190 -129 -305t-331 -115t-331 115t-129 305zM322 434q0 -114 66 -185t172 -71t172 71t66 185t-65 181t-173 67 t-173 -67t-65 -181zM370 1074q0 -88 56 -146t134 -58t134 58t56 146t-56 145t-134 57t-134 -57t-56 -145z" />
<glyph unicode="9" horiz-adv-x="1050" d="M100 612q0 172 116 297t284 125q88 0 164 -25t143 -80t105 -159t38 -248q0 -358 -179 -612t-501 -370l-82 162q220 110 347 234t173 336q-94 -58 -196 -58q-184 0 -298 107t-114 291zM310 624q0 -102 53 -162t129 -60q82 0 151 33t89 87q0 324 -228 324q-80 0 -137 -65 t-57 -157z" />
<glyph unicode=":" d="M140 150q0 66 47 113t113 47t113 -47t47 -113t-47 -113t-113 -47t-113 47t-47 113zM140 824q0 66 47 113t113 47t113 -47t47 -113t-47 -113t-113 -47t-113 47t-47 113z" />
<glyph unicode=";" d="M140 150q0 66 47 113t113 47t113 -47t47 -113q0 -242 -194 -398l-62 64q68 74 68 142q0 26 -18 42q-6 6 -31 19t-40 24t-29 39t-14 68zM140 824q0 66 47 113t113 47t113 -47t47 -113t-47 -113t-113 -47t-113 47t-47 113z" />
<glyph unicode="&#x3c;" horiz-adv-x="1010" d="M100 498v140l760 274l50 -150l-604 -194l604 -194l-50 -150z" />
<glyph unicode="=" horiz-adv-x="1000" d="M100 326v160h800v-160h-800zM100 652v160h800v-160h-800z" />
<glyph unicode="&#x3e;" horiz-adv-x="1010" d="M100 374l604 194l-604 194l50 150l760 -274v-140l-760 -274z" />
<glyph unicode="?" horiz-adv-x="966" d="M60 1092v276q76 36 189 64t219 28q438 0 438 -352q0 -70 -34 -138t-85 -126t-105 -114t-101 -126t-65 -140h-160q2 78 37 154t83 135t96 117t81 121t33 125q0 72 -62 114t-156 42q-100 0 -224 -30v-150h-184zM276 150q0 66 47 113t113 47t113 -47t47 -113t-47 -113 t-113 -47t-113 47t-47 113z" />
<glyph unicode="@" horiz-adv-x="1884" d="M100 528q0 344 245 590t599 246q392 0 616 -207t224 -551q0 -244 -115 -380t-267 -136q-76 0 -125 30t-71 110q-80 -170 -270 -170q-198 0 -327 135t-129 317t129 317t327 135q170 0 252 -138v130h208v-604q0 -104 32 -104q20 0 48 19t60 57t54 112t22 170 q0 290 -186 450t-482 160q-276 0 -476 -200t-200 -488t200 -488t476 -200q80 0 160 20t120 40l38 18l64 -136q-174 -90 -382 -90q-354 0 -599 246t-245 590zM692 512q0 -120 73 -202t171 -82t175 83t77 201t-77 201t-175 83t-171 -82t-73 -202z" />
<glyph unicode="A" horiz-adv-x="1380" d="M0 0v184h104l484 1278h216l488 -1278h88v-184h-424v184h86l-96 284h-518l-98 -284h94v-184h-424zM492 652h392l-194 574z" />
<glyph unicode="B" horiz-adv-x="1320" d="M100 0v184h144v1082h-144v184h604q268 0 381 -95t113 -297q0 -250 -208 -310q122 -20 196 -98t74 -250q0 -400 -520 -400h-640zM464 184h178q208 0 303 48t95 168q0 136 -77 191t-245 55h-254v-462zM464 830h160q178 0 266 48t88 180q0 120 -86 164t-286 44h-142v-436z " />
<glyph unicode="C" horiz-adv-x="1460" d="M100 726q0 312 211 523t521 211q314 0 524 -216l-118 -138q-180 170 -408 170q-214 0 -362 -160t-148 -390t148 -391t362 -161q230 0 412 176l118 -136q-214 -224 -528 -224q-310 0 -521 212t-211 524z" />
<glyph unicode="D" horiz-adv-x="1510" d="M100 0v184h144v1082h-144v184h578q386 0 561 -180t175 -534q0 -358 -174 -547t-562 -189h-578zM464 184h214q154 0 255 34t157 107t78 170t22 241q0 284 -109 407t-403 123h-214v-1082z" />
<glyph unicode="E" horiz-adv-x="1300" d="M100 0v184h144v1082h-144v184h1100v-340h-184v156h-552v-426h584v-184h-584v-472h552v156h184v-340h-1100z" />
<glyph unicode="F" horiz-adv-x="1120" d="M100 0v184h144v1082h-144v184h1000v-340h-184v156h-452v-426h482v-184h-482v-472h192v-184h-556z" />
<glyph unicode="G" horiz-adv-x="1574" d="M100 726q0 312 211 523t521 211q314 0 524 -216l-118 -138q-180 170 -408 170q-214 0 -362 -160t-148 -390t148 -391t362 -161q186 0 310 56v242h-126v184h480v-184h-134v-322q-204 -160 -528 -160q-310 0 -521 212t-211 524z" />
<glyph unicode="H" horiz-adv-x="1540" d="M120 0v184h144v1082h-144v184h508v-184h-144v-420h572v420h-144v184h508v-184h-144v-1082h144v-184h-508v184h144v478h-572v-478h144v-184h-508z" />
<glyph unicode="I" horiz-adv-x="908" d="M160 0v184h184v1082h-184v184h588v-184h-184v-1082h184v-184h-588z" />
<glyph unicode="J" horiz-adv-x="900" d="M20 0v340h184v-156h16q54 0 79 1t62 6t51 15t36 31t28 49t15 74t11 104t2 138v664h-146v184h482v-184h-116v-674q0 -136 -7 -225t-31 -158t-57 -107t-94 -63t-133 -32t-186 -7h-196z" />
<glyph unicode="K" horiz-adv-x="1360" d="M100 0v184h164v1082h-164v184h508v-184h-124v-440l436 440h-74v184h444v-184h-106l-498 -476l458 -606h176v-184h-304l-484 642l-48 -46v-412h164v-184h-548z" />
<glyph unicode="L" horiz-adv-x="1220" d="M100 0v184h144v1082h-144v184h508v-184h-144v-1082h552v156h184v-340h-1100z" />
<glyph unicode="M" horiz-adv-x="2000" d="M100 0v184h146v1082h-146v184h504l408 -1118l378 1118h510v-184h-144v-1082h144v-184h-508v184h142v1046l-424 -1230h-196l-450 1232v-1048h144v-184h-508z" />
<glyph unicode="N" horiz-adv-x="1600" d="M100 0v184h146v1082h-146v184h526l512 -1016v832h-146v184h508v-184h-144v-1266h-266l-626 1244v-1060h144v-184h-508z" />
<glyph unicode="O" horiz-adv-x="1664" d="M100 726q0 312 211 523t521 211t521 -211t211 -523t-211 -524t-521 -212t-521 212t-211 524zM320 726q0 -230 148 -391t364 -161t364 161t148 391t-148 390t-364 160t-364 -160t-148 -390z" />
<glyph unicode="P" horiz-adv-x="1268" d="M100 0v184h144v1082h-144v184h600q266 0 387 -104t121 -308q0 -194 -125 -301t-365 -107h-254v-446h144v-184h-508zM464 814h254q130 0 200 48t70 176t-75 178t-213 50h-236v-452z" />
<glyph unicode="Q" horiz-adv-x="1654" d="M100 726q0 312 211 523t521 211t521 -211t211 -523q0 -286 -180 -492l42 -50h188v-184h-260l-106 116q-186 -126 -416 -126q-310 0 -521 212t-211 524zM320 726q0 -230 148 -391t364 -161q156 0 282 88l-138 150l136 132l132 -150q100 144 100 332q0 230 -148 390 t-364 160t-364 -160t-148 -390z" />
<glyph unicode="R" horiz-adv-x="1412" d="M100 0v184h144v1082h-144v184h600q266 0 387 -104t121 -308q0 -140 -79 -238t-223 -140l264 -476h142v-184h-304l-326 630h-218v-446h144v-184h-508zM464 814h254q130 0 200 48t70 176t-75 178t-213 50h-236v-452z" />
<glyph unicode="S" horiz-adv-x="1190" d="M100 50v336h198v-184q130 -24 240 -24q332 0 332 204q0 120 -71 177t-231 79q-190 26 -321 131t-131 301q0 190 133 290t325 100q280 0 446 -54v-336h-198v184q-132 22 -252 22q-234 0 -234 -204q0 -104 71 -155t219 -77q464 -82 464 -462q0 -388 -548 -388 q-240 0 -442 60z" />
<glyph unicode="T" horiz-adv-x="1240" d="M20 1110v340h1200v-340h-184v156h-306v-1082h144v-184h-508v184h144v1082h-306v-156h-184z" />
<glyph unicode="U" horiz-adv-x="1438" d="M60 1266v184h508v-184h-142v-680q0 -132 18 -215t59 -125t90 -56t129 -14q78 0 127 14t90 56t59 125t18 215v680h-146v184h508v-184h-144v-680q0 -178 -39 -299t-113 -184t-160 -88t-200 -25q-116 0 -203 25t-162 88t-114 184t-39 299v680h-144z" />
<glyph unicode="V" horiz-adv-x="1400" d="M0 1266v184h464v-184h-120l372 -1034l346 1034h-126v184h464v-184h-112l-470 -1276h-204l-498 1276h-116z" />
<glyph unicode="W" horiz-adv-x="2016" d="M0 1266v184h464v-184h-130l292 -994l282 1060h204l302 -1060l268 994h-130v184h464v-184h-104l-402 -1276h-204l-294 990l-278 -990h-204l-426 1276h-104z" />
<glyph unicode="X" horiz-adv-x="1440" d="M100 0v184h120l364 526l-376 556h-108v184h444v-184h-76l258 -396l264 396h-94v184h444v-184h-110l-376 -540l368 -542h118v-184h-444v184h46l-230 382l-234 -382h66v-184h-444z" />
<glyph unicode="Y" horiz-adv-x="1320" d="M0 1266v184h464v-184h-96l308 -520l276 520h-96v184h464v-184h-108l-426 -724v-358h144v-184h-508v184h144v358l-458 724h-108z" />
<glyph unicode="Z" horiz-adv-x="1400" d="M100 0v184l880 1082h-656v-156h-184v340h1120v-184l-880 -1082h736v156h184v-340h-1200z" />
<glyph unicode="[" horiz-adv-x="624" d="M160 -320v1868h304v-140h-144v-1588h144v-140h-304z" />
<glyph unicode="\" horiz-adv-x="676" d="M-8 1496l152 52l540 -1664l-152 -52z" />
<glyph unicode="]" horiz-adv-x="624" d="M160 -180h144v1588h-144v140h304v-1868h-304v140z" />
<glyph unicode="^" horiz-adv-x="1360" d="M386 1210l238 250h112l238 -250l-68 -78l-226 160l-226 -160z" />
<glyph unicode="_" horiz-adv-x="1000" d="M100 0h800v-160h-800v160z" />
<glyph unicode="`" horiz-adv-x="1360" d="M482 1420v30h268l128 -244v-28h-124z" />
<glyph unicode="a" horiz-adv-x="1366" d="M100 512q0 214 148 368t364 154t292 -172v162h220v-840h142v-184h-362v162q-76 -172 -292 -172t-364 154t-148 368zM320 512q0 -136 86 -237t206 -101t206 101t86 237t-86 237t-206 101t-206 -101t-86 -237z" />
<glyph unicode="b" horiz-adv-x="1368" d="M100 0v184h144v1180h-144v184h364v-686q76 172 292 172t364 -154t148 -368t-148 -368t-364 -154t-292 172v-162h-364zM464 512q0 -136 86 -237t206 -101t206 101t86 237t-86 237t-206 101t-206 -101t-86 -237z" />
<glyph unicode="c" horiz-adv-x="1098" d="M100 512q0 224 153 373t375 149q202 0 354 -132l-126 -144q-108 92 -228 92q-124 0 -215 -97t-91 -241t91 -241t215 -97q64 0 129 31t109 77l132 -132q-156 -160 -370 -160q-222 0 -375 149t-153 373z" />
<glyph unicode="d" horiz-adv-x="1366" d="M100 512q0 214 148 368t364 154t292 -172v502h-144v184h364v-1364h142v-184h-362v162q-76 -172 -292 -172t-364 154t-148 368zM320 512q0 -136 86 -237t206 -101t206 101t86 237t-86 237t-206 101t-206 -101t-86 -237z" />
<glyph unicode="e" horiz-adv-x="1180" d="M100 512q0 220 141 371t353 151q224 0 355 -141t131 -409q0 -30 -2 -44h-752q22 -118 102 -192t190 -74q82 0 152 46t114 118l168 -98q-70 -114 -183 -182t-251 -68q-220 0 -369 148t-149 374zM334 624h532q-24 112 -98 169t-174 57q-96 0 -165 -62t-95 -164z" />
<glyph unicode="f" horiz-adv-x="808" d="M100 0v184h164v656h-164v184h164v46q0 250 68 364t234 114h262v-342h-184v156h-12q-78 0 -113 -57t-35 -231v-50h192v-184h-192v-656h192v-184h-576z" />
<glyph unicode="g" horiz-adv-x="1368" d="M100 512q0 214 148 368t364 154t292 -172v162h364v-184h-144v-790q0 -290 -124 -420t-400 -130q-296 0 -484 158l100 162q154 -136 384 -136q174 0 239 84t65 280v114q-76 -172 -292 -172t-364 154t-148 368zM320 512q0 -136 86 -237t206 -101t206 101t86 237t-86 237 t-206 101t-206 -101t-86 -237z" />
<glyph unicode="h" horiz-adv-x="1330" d="M100 0v184h144v1180h-144v184h364v-634q128 120 274 120q96 0 164 -26t105 -65t58 -106t26 -125t5 -144v-384h134v-184h-498v184h144v342q0 170 -39 247t-99 77q-88 0 -148 -20t-126 -78v-568h144v-184h-508z" />
<glyph unicode="i" horiz-adv-x="746" d="M100 0v184h164v656h-144v184h364v-840h162v-184h-546zM188 1362q0 66 47 113t113 47t113 -47t47 -113t-47 -113t-113 -47t-113 47t-47 113z" />
<glyph unicode="j" horiz-adv-x="652" d="M-6 -200h184v-116h6q86 0 108 59t22 231v866h-144v184h364v-1046q0 -266 -62 -372t-240 -106h-238v300zM252 1362q0 66 47 113t113 47t113 -47t47 -113t-47 -113t-113 -47t-113 47t-47 113z" />
<glyph unicode="k" horiz-adv-x="1294" d="M100 0v184h164v1180h-144v184h364v-920l238 212h-86v184h462v-184h-154l-248 -226l350 -430h148v-184h-264l-374 488l-72 -66v-238h162v-184h-546z" />
<glyph unicode="l" horiz-adv-x="746" d="M100 0v184h164v1180h-144v184h364v-1364h162v-184h-546z" />
<glyph unicode="m" horiz-adv-x="1936" d="M100 0v184h144v656h-144v184h364v-108q122 118 260 118q240 0 316 -160q134 160 298 160q120 0 196 -36t111 -108t46 -143t11 -179v-384h134v-184h-498v184h144v342q0 180 -33 252t-111 72q-82 0 -139 -21t-123 -79q12 -84 12 -182v-384h134v-184h-498v184h144v342 q0 178 -35 251t-109 73q-84 0 -138 -20t-122 -78v-568h144v-184h-508z" />
<glyph unicode="n" horiz-adv-x="1330" d="M100 0v184h144v656h-144v184h364v-110q128 120 274 120q96 0 164 -26t105 -65t58 -106t26 -125t5 -144v-384h134v-184h-498v184h144v342q0 182 -31 253t-107 71q-88 0 -148 -20t-126 -78v-568h144v-184h-508z" />
<glyph unicode="o" horiz-adv-x="1224" d="M100 512q0 218 150 370t362 152t362 -152t150 -370t-150 -370t-362 -152t-362 152t-150 370zM320 512q0 -140 85 -239t207 -99t207 99t85 239t-85 239t-207 99t-207 -99t-85 -239z" />
<glyph unicode="p" horiz-adv-x="1368" d="M100 -316h144v1156h-144v184h364v-162q76 172 292 172t364 -154t148 -368t-148 -368t-364 -154t-292 172v-478h144v-184h-508v184zM464 512q0 -138 86 -238t206 -100t206 100t86 238t-86 238t-206 100t-206 -100t-86 -238z" />
<glyph unicode="q" horiz-adv-x="1368" d="M100 512q0 214 148 368t364 154t292 -172v162h364v-184h-144v-1156h144v-184h-508v184h144v478q-76 -172 -292 -172t-364 154t-148 368zM320 512q0 -138 86 -238t206 -100t206 100t86 238t-86 238t-206 100t-206 -100t-86 -238z" />
<glyph unicode="r" horiz-adv-x="1024" d="M100 0v184h144v656h-144v184h364v-110q152 122 326 122q56 0 134 -12v-336h-184v144q-18 2 -26 2q-146 0 -250 -88v-562h144v-184h-508z" />
<glyph unicode="s" horiz-adv-x="1012" d="M100 50v252h184v-118q80 -10 154 -10q234 0 234 124q0 62 -42 95t-162 51q-178 28 -265 99t-87 227q0 120 104 192t254 72q178 0 348 -48v-252h-184v110q-94 10 -168 10q-66 0 -100 -23t-34 -59q0 -48 36 -77t154 -49q192 -32 279 -110t87 -242q0 -92 -36 -155t-103 -94 t-140 -43t-171 -12q-188 0 -342 60z" />
<glyph unicode="t" horiz-adv-x="830" d="M100 840v184h158v258h220v-258h202v-184h-202v-422q0 -142 22 -189t94 -47q18 0 62 4l34 4l2 -172l-48 -12q-84 -20 -142 -20q-244 0 -244 336v518h-158z" />
<glyph unicode="u" horiz-adv-x="1340" d="M100 840v184h364v-526q0 -182 31 -253t107 -71q88 0 148 20t126 78v568h-144v184h364v-840h144v-184h-364v110q-128 -120 -274 -120q-96 0 -164 26t-105 65t-58 106t-26 125t-5 144v384h-144z" />
<glyph unicode="v" horiz-adv-x="1200" d="M60 840v184h464v-184h-112l198 -576l176 576h-110v184h464v-184h-118l-312 -850h-196l-336 850h-118z" />
<glyph unicode="w" horiz-adv-x="1820" d="M60 840v184h464v-184h-114l178 -576l216 660h208l230 -660l166 576h-112v184h464v-184h-118l-300 -850h-196l-236 642l-222 -642h-196l-316 850h-116z" />
<glyph unicode="x" horiz-adv-x="1240" d="M100 0v184h122l252 326l-254 330h-120v184h444v-184h-66l142 -208l144 208h-70v184h446v-184h-122l-252 -326l254 -330h120v-184h-446v184h68l-142 208l-144 -208h68v-184h-444z" />
<glyph unicode="y" horiz-adv-x="1220" d="M70 840v184h454v-184h-104l222 -568l188 568h-114v184h444v-184h-132l-302 -896q-80 -242 -166 -343t-232 -101h-242v300h184v-116h10q102 0 150 44t104 212l22 66l-374 834h-112z" />
<glyph unicode="z" horiz-adv-x="1100" d="M100 0v184l580 656h-356v-156h-184v340h820v-184l-580 -656h436v156h184v-340h-900z" />
<glyph unicode="{" horiz-adv-x="640" d="M100 540v152q82 0 108 35t26 119v416q0 190 51 238t255 48v-144q-92 0 -118 -28t-26 -112v-448q0 -122 -30 -162t-82 -40q54 -2 83 -42t29 -162v-446q0 -84 26 -112t118 -28v-144q-204 0 -255 48t-51 238v414q0 86 -27 123t-107 37z" />
<glyph unicode="|" horiz-adv-x="680" d="M260 -500v2048h160v-2048h-160z" />
<glyph unicode="}" horiz-adv-x="640" d="M100 -176q92 0 118 28t26 112v446q0 122 29 162t83 42q-52 0 -82 40t-30 162v448q0 84 -26 112t-118 28v144q204 0 255 -48t51 -238v-416q0 -84 26 -119t108 -35v-152q-80 0 -107 -37t-27 -123v-414q0 -190 -51 -238t-255 -48v144z" />
<glyph unicode="~" horiz-adv-x="1200" d="M100 540q90 88 172 128t147 38t126 -21t118 -44t111 -37t118 7t128 79l80 -90q-90 -88 -172 -128t-147 -38t-126 21t-118 44t-111 37t-118 -7t-128 -79z" />
<glyph unicode="&#xa1;" d="M140 874q0 66 47 113t113 47t113 -47t47 -113t-47 -113t-113 -47t-113 47t-47 113zM162 -426l58 986h160l58 -986h-276z" />
<glyph unicode="&#xa2;" horiz-adv-x="1098" d="M100 512q0 200 125 343t315 173v142h120v-136q180 -10 322 -132l-126 -144q-86 76 -196 90v-672q118 14 206 106l132 -132q-146 -150 -338 -160v-142h-120v148q-190 30 -315 173t-125 343zM322 512q0 -116 62 -205t156 -119v648q-94 -30 -156 -119t-62 -205z" />
<glyph unicode="&#xa3;" horiz-adv-x="992" d="M60 0v184h144v254h-112v120h112v84q0 392 316 392q72 0 133 -13t89 -25t90 -42v-256h-184v134q-64 14 -128 14q-34 0 -54 -14t-29 -46t-11 -63t-2 -89v-76h188v-120h-188v-254h324v156h184v-340h-872z" />
<glyph unicode="&#xa5;" horiz-adv-x="1000" d="M0 840v184h454v-184h-110l166 -276l142 276h-106v184h454v-184h-108l-164 -286h126v-120h-194l-36 -62v-8h228v-120h-228v-60h144v-184h-508v184h144v60h-228v120h228v8l-40 62h-186v120h110l-184 286h-104z" />
<glyph unicode="&#xa8;" horiz-adv-x="1360" d="M300 1420q0 66 47 113t113 47t113 -47t47 -113t-47 -113t-113 -47t-113 47t-47 113zM740 1420q0 66 47 113t113 47t113 -47t47 -113t-47 -113t-113 -47t-113 47t-47 113z" />
<glyph unicode="&#xab;" horiz-adv-x="880" d="M100 588l150 296h200l-150 -296l150 -296h-200zM430 588l150 296h200l-150 -296l150 -296h-200z" />
<glyph unicode="&#xac;" horiz-adv-x="1160" d="M100 490v160h960v-480h-160v320h-800z" />
<glyph unicode="&#xad;" d="M100 530v170h400v-170h-400z" />
<glyph unicode="&#xaf;" horiz-adv-x="1364" d="M392 1252v140h580v-140h-580z" />
<glyph unicode="&#xb0;" horiz-adv-x="760" d="M140 1220q0 100 70 170t170 70t170 -70t70 -170t-70 -170t-170 -70t-170 70t-70 170zM262 1220q0 -48 35 -83t83 -35t83 35t35 83t-35 83t-83 35t-83 -35t-35 -83z" />
<glyph unicode="&#xb1;" horiz-adv-x="1000" d="M100 90v160h800v-160h-800zM100 550v160h320v220h160v-220h320v-160h-320v-220h-160v220h-320z" />
<glyph unicode="&#xb5;" horiz-adv-x="1330" d="M92 -316h142v1156h-142v184h362v-526q0 -182 31 -253t107 -71q88 0 148 20t126 78v568h-144v184h364v-840h144v-184h-364v110q-128 -120 -274 -120q-78 0 -138 16v-322h146v-184h-508v184z" />
<glyph unicode="&#xb7;" d="M140 608q0 66 47 113t113 47t113 -47t47 -113t-47 -113t-113 -47t-113 47t-47 113z" />
<glyph unicode="&#xb8;" horiz-adv-x="1100" d="M392 -122l164 196l68 -28l-126 -152q32 12 70 12q82 0 137 -38t55 -120q0 -70 -56 -114t-142 -44q-102 0 -164 50l30 72q52 -34 134 -34q32 0 56 20t24 50q0 28 -21 47t-51 19q-64 0 -110 -18z" />
<glyph unicode="&#xbb;" horiz-adv-x="880" d="M100 292l150 296l-150 296h200l150 -296l-150 -296h-200zM430 292l150 296l-150 296h200l150 -296l-150 -296h-200z" />
<glyph unicode="&#xbf;" horiz-adv-x="966" d="M60 -84q0 70 34 138t85 126t105 114t101 126t65 140h160q-2 -78 -37 -154t-83 -135t-96 -117t-81 -121t-33 -125q0 -72 62 -114t156 -42q100 0 224 30v150h184v-276q-76 -36 -189 -64t-219 -28q-438 0 -438 352zM370 874q0 66 47 113t113 47t113 -47t47 -113t-47 -113 t-113 -47t-113 47t-47 113z" />
<glyph unicode="&#xc0;" horiz-adv-x="1380" d="M0 0v184h104l484 1278h216l488 -1278h88v-184h-424v184h86l-96 284h-518l-98 -284h94v-184h-424zM396 1826v30h268l128 -244v-28h-124zM492 652h392l-194 574z" />
<glyph unicode="&#xc1;" horiz-adv-x="1380" d="M0 0v184h104l484 1278h216l488 -1278h88v-184h-424v184h86l-96 284h-518l-98 -284h94v-184h-424zM492 652h392l-194 574zM628 1584v28l128 244h268v-30l-272 -242h-124z" />
<glyph unicode="&#xc2;" horiz-adv-x="1380" d="M0 0v184h104l484 1278h216l488 -1278h88v-184h-424v184h86l-96 284h-518l-98 -284h94v-184h-424zM416 1646l238 250h112l238 -250l-68 -78l-226 160l-226 -160zM492 652h392l-194 574z" />
<glyph unicode="&#xc3;" horiz-adv-x="1380" d="M0 0v184h104l484 1278h216l488 -1278h88v-184h-424v184h86l-96 284h-518l-98 -284h94v-184h-424zM346 1660q114 110 198 141t134 6t94 -56t101 -27t131 74l70 -80q-114 -110 -198 -141t-134 -6t-94 56t-101 27t-131 -74zM492 652h392l-194 574z" />
<glyph unicode="&#xc4;" horiz-adv-x="1380" d="M0 0v184h104l484 1278h216l488 -1278h88v-184h-424v184h86l-96 284h-518l-98 -284h94v-184h-424zM330 1744q0 66 47 113t113 47t113 -47t47 -113t-47 -113t-113 -47t-113 47t-47 113zM492 652h392l-194 574zM770 1744q0 66 47 113t113 47t113 -47t47 -113t-47 -113 t-113 -47t-113 47t-47 113z" />
<glyph unicode="&#xc5;" horiz-adv-x="1380" d="M0 0v184h104l484 1278h216l488 -1278h88v-184h-424v184h86l-96 284h-518l-98 -284h94v-184h-424zM470 1686q0 100 70 170t170 70t170 -70t70 -170t-70 -170t-170 -70t-170 70t-70 170zM492 652h392l-194 574zM592 1686q0 -48 35 -83t83 -35t83 35t35 83t-35 83t-83 35 t-83 -35t-35 -83z" />
<glyph unicode="&#xc6;" horiz-adv-x="1968" d="M0 0v184h114l678 1266h1076v-340h-184v156h-552v-426h584v-184h-584v-472h552v156h184v-340h-1100v184h144v252h-432l-126 -252h88v-184h-442zM574 620h338v672z" />
<glyph unicode="&#xc7;" horiz-adv-x="1460" d="M100 726q0 312 211 523t521 211q314 0 524 -216l-118 -138q-180 170 -408 170q-214 0 -362 -160t-148 -390t148 -391t362 -161q230 0 412 176l118 -136q-212 -218 -514 -224l-88 -106q32 12 70 12q82 0 137 -38t55 -120q0 -70 -56 -114t-142 -44q-102 0 -164 50l30 72 q52 -34 134 -34q32 0 56 20t24 50q0 28 -21 47t-51 19q-64 0 -110 -18l-68 82l106 126q-284 28 -471 234t-187 498z" />
<glyph unicode="&#xc8;" horiz-adv-x="1300" d="M100 0v184h144v1082h-144v184h1100v-340h-184v156h-552v-426h584v-184h-584v-472h552v156h184v-340h-1100zM336 1824v30h268l128 -244v-28h-124z" />
<glyph unicode="&#xc9;" horiz-adv-x="1300" d="M100 0v184h144v1082h-144v184h1100v-340h-184v156h-552v-426h584v-184h-584v-472h552v156h184v-340h-1100zM568 1582v28l128 244h268v-30l-272 -242h-124z" />
<glyph unicode="&#xca;" horiz-adv-x="1300" d="M100 0v184h144v1082h-144v184h1100v-340h-184v156h-552v-426h584v-184h-584v-472h552v156h184v-340h-1100zM356 1644l238 250h112l238 -250l-68 -78l-226 160l-226 -160z" />
<glyph unicode="&#xcb;" horiz-adv-x="1300" d="M100 0v184h144v1082h-144v184h1100v-340h-184v156h-552v-426h584v-184h-584v-472h552v156h184v-340h-1100zM270 1742q0 66 47 113t113 47t113 -47t47 -113t-47 -113t-113 -47t-113 47t-47 113zM710 1742q0 66 47 113t113 47t113 -47t47 -113t-47 -113t-113 -47t-113 47 t-47 113z" />
<glyph unicode="&#xcc;" horiz-adv-x="908" d="M90 1824v30h268l128 -244v-28h-124zM160 0v184h184v1082h-184v184h588v-184h-184v-1082h184v-184h-588z" />
<glyph unicode="&#xcd;" horiz-adv-x="908" d="M160 0v184h184v1082h-184v184h588v-184h-184v-1082h184v-184h-588zM322 1582v28l128 244h268v-30l-272 -242h-124z" />
<glyph unicode="&#xce;" horiz-adv-x="908" d="M110 1644l238 250h112l238 -250l-68 -78l-226 160l-226 -160zM160 0v184h184v1082h-184v184h588v-184h-184v-1082h184v-184h-588z" />
<glyph unicode="&#xcf;" horiz-adv-x="908" d="M24 1742q0 66 47 113t113 47t113 -47t47 -113t-47 -113t-113 -47t-113 47t-47 113zM160 0v184h184v1082h-184v184h588v-184h-184v-1082h184v-184h-588zM464 1742q0 66 47 113t113 47t113 -47t47 -113t-47 -113t-113 -47t-113 47t-47 113z" />
<glyph unicode="&#xd0;" horiz-adv-x="1510" d="M100 0v184h144v464h-144v120h144v498h-144v184h578q386 0 561 -180t175 -534q0 -358 -174 -547t-562 -189h-578zM464 184h214q154 0 255 34t157 107t78 170t22 241q0 284 -109 407t-403 123h-214v-498h224v-120h-224v-464z" />
<glyph unicode="&#xd1;" horiz-adv-x="1600" d="M100 0v184h146v1082h-146v184h526l512 -1016v832h-146v184h508v-184h-144v-1266h-266l-626 1244v-1060h144v-184h-508zM436 1658q114 110 198 141t134 6t94 -56t101 -27t131 74l70 -80q-114 -110 -198 -141t-134 -6t-94 56t-101 27t-131 -74z" />
<glyph unicode="&#xd2;" horiz-adv-x="1664" d="M100 726q0 312 211 523t521 211t521 -211t211 -523t-211 -524t-521 -212t-521 212t-211 524zM320 726q0 -230 148 -391t364 -161t364 161t148 391t-148 390t-364 160t-364 -160t-148 -390zM518 1824v30h268l128 -244v-28h-124z" />
<glyph unicode="&#xd3;" horiz-adv-x="1664" d="M100 726q0 312 211 523t521 211t521 -211t211 -523t-211 -524t-521 -212t-521 212t-211 524zM320 726q0 -230 148 -391t364 -161t364 161t148 391t-148 390t-364 160t-364 -160t-148 -390zM750 1582v28l128 244h268v-30l-272 -242h-124z" />
<glyph unicode="&#xd4;" horiz-adv-x="1664" d="M100 726q0 312 211 523t521 211t521 -211t211 -523t-211 -524t-521 -212t-521 212t-211 524zM320 726q0 -230 148 -391t364 -161t364 161t148 391t-148 390t-364 160t-364 -160t-148 -390zM538 1644l238 250h112l238 -250l-68 -78l-226 160l-226 -160z" />
<glyph unicode="&#xd5;" horiz-adv-x="1664" d="M100 726q0 312 211 523t521 211t521 -211t211 -523t-211 -524t-521 -212t-521 212t-211 524zM320 726q0 -230 148 -391t364 -161t364 161t148 391t-148 390t-364 160t-364 -160t-148 -390zM468 1658q114 110 198 141t134 6t94 -56t101 -27t131 74l70 -80 q-114 -110 -198 -141t-134 -6t-94 56t-101 27t-131 -74z" />
<glyph unicode="&#xd6;" horiz-adv-x="1664" d="M100 726q0 312 211 523t521 211t521 -211t211 -523t-211 -524t-521 -212t-521 212t-211 524zM320 726q0 -230 148 -391t364 -161t364 161t148 391t-148 390t-364 160t-364 -160t-148 -390zM452 1742q0 66 47 113t113 47t113 -47t47 -113t-47 -113t-113 -47t-113 47 t-47 113zM892 1742q0 66 47 113t113 47t113 -47t47 -113t-47 -113t-113 -47t-113 47t-47 113z" />
<glyph unicode="&#xd7;" horiz-adv-x="1000" d="M160 344l226 226l-226 226l114 114l226 -226l226 226l114 -114l-226 -226l226 -226l-114 -114l-226 226l-226 -226z" />
<glyph unicode="&#xd8;" horiz-adv-x="1664" d="M100 726q0 312 211 523t521 211q274 0 476 -170l98 98l86 -86l-98 -98q170 -202 170 -478q0 -312 -211 -524t-521 -212q-276 0 -480 172l-94 -94l-86 86l96 96q-168 202 -168 476zM320 726q0 -180 98 -326l746 746q-142 130 -332 130q-216 0 -364 -160t-148 -390z M496 306q144 -132 336 -132q216 0 364 161t148 391q0 180 -100 328z" />
<glyph unicode="&#xd9;" horiz-adv-x="1438" d="M60 1266v184h508v-184h-142v-680q0 -132 18 -215t59 -125t90 -56t129 -14q78 0 127 14t90 56t59 125t18 215v680h-146v184h508v-184h-144v-680q0 -178 -39 -299t-113 -184t-160 -88t-200 -25q-116 0 -203 25t-162 88t-114 184t-39 299v680h-144zM406 1824v30h268 l128 -244v-28h-124z" />
<glyph unicode="&#xda;" horiz-adv-x="1438" d="M60 1266v184h508v-184h-142v-680q0 -132 18 -215t59 -125t90 -56t129 -14q78 0 127 14t90 56t59 125t18 215v680h-146v184h508v-184h-144v-680q0 -178 -39 -299t-113 -184t-160 -88t-200 -25q-116 0 -203 25t-162 88t-114 184t-39 299v680h-144zM638 1582v28l128 244h268 v-30l-272 -242h-124z" />
<glyph unicode="&#xdb;" horiz-adv-x="1438" d="M60 1266v184h508v-184h-142v-680q0 -132 18 -215t59 -125t90 -56t129 -14q78 0 127 14t90 56t59 125t18 215v680h-146v184h508v-184h-144v-680q0 -178 -39 -299t-113 -184t-160 -88t-200 -25q-116 0 -203 25t-162 88t-114 184t-39 299v680h-144zM426 1644l238 250h112 l238 -250l-68 -78l-226 160l-226 -160z" />
<glyph unicode="&#xdc;" horiz-adv-x="1438" d="M60 1266v184h508v-184h-142v-680q0 -132 18 -215t59 -125t90 -56t129 -14q78 0 127 14t90 56t59 125t18 215v680h-146v184h508v-184h-144v-680q0 -178 -39 -299t-113 -184t-160 -88t-200 -25q-116 0 -203 25t-162 88t-114 184t-39 299v680h-144zM340 1742q0 66 47 113 t113 47t113 -47t47 -113t-47 -113t-113 -47t-113 47t-47 113zM780 1742q0 66 47 113t113 47t113 -47t47 -113t-47 -113t-113 -47t-113 47t-47 113z" />
<glyph unicode="&#xdd;" horiz-adv-x="1320" d="M0 1266v184h464v-184h-96l308 -520l276 520h-96v184h464v-184h-108l-426 -724v-358h144v-184h-508v184h144v358l-458 724h-108zM578 1582v28l128 244h268v-30l-272 -242h-124z" />
<glyph unicode="&#xde;" horiz-adv-x="1268" d="M100 0v184h144v1082h-144v184h508v-184h-144v-110h236q270 0 389 -96t119 -296q0 -388 -490 -388h-254v-192h144v-184h-508zM464 560h254q136 0 203 39t67 165t-72 167t-216 41h-236v-412z" />
<glyph unicode="&#xdf;" horiz-adv-x="1380" d="M100 0v184h164v656h-164v184h164v46q0 250 68 364t234 114h42q166 0 246 -110t80 -298q0 -132 -36 -286q-66 0 -100 -23t-34 -59q0 -26 4 -43t20 -38t55 -38t99 -29q170 -34 254 -104t84 -226q0 -92 -33 -155t-96 -94t-134 -43t-167 -12q-160 0 -266 60v252h184v-124 q24 -4 78 -4q214 0 214 124q0 60 -40 92t-144 54q-164 34 -248 103t-84 223q0 94 66 160t172 90q14 84 14 154q0 250 -188 250h-16q-62 0 -85 -75t-23 -227v-1122h-384z" />
<glyph unicode="&#xe0;" horiz-adv-x="1366" d="M100 512q0 214 148 368t364 154t292 -172v162h220v-840h142v-184h-362v162q-76 -172 -292 -172t-364 154t-148 368zM320 512q0 -136 86 -237t206 -101t206 101t86 237t-86 237t-206 101t-206 -101t-86 -237zM354 1398v30h268l128 -244v-28h-124z" />
<glyph unicode="&#xe1;" horiz-adv-x="1366" d="M100 512q0 214 148 368t364 154t292 -172v162h220v-840h142v-184h-362v162q-76 -172 -292 -172t-364 154t-148 368zM320 512q0 -136 86 -237t206 -101t206 101t86 237t-86 237t-206 101t-206 -101t-86 -237zM530 1156v28l128 244h268v-30l-272 -242h-124z" />
<glyph unicode="&#xe2;" horiz-adv-x="1366" d="M100 512q0 214 148 368t364 154t292 -172v162h220v-840h142v-184h-362v162q-76 -172 -292 -172t-364 154t-148 368zM320 512q0 -136 86 -237t206 -101t206 101t86 237t-86 237t-206 101t-206 -101t-86 -237zM350 1218l238 250h112l238 -250l-68 -78l-226 160l-226 -160z " />
<glyph unicode="&#xe3;" horiz-adv-x="1366" d="M100 512q0 214 148 368t364 154t292 -172v162h220v-840h142v-184h-362v162q-76 -172 -292 -172t-364 154t-148 368zM282 1232q114 110 198 141t134 6t94 -56t101 -27t131 74l70 -80q-114 -110 -198 -141t-134 -6t-94 56t-101 27t-131 -74zM320 512q0 -136 86 -237 t206 -101t206 101t86 237t-86 237t-206 101t-206 -101t-86 -237z" />
<glyph unicode="&#xe4;" horiz-adv-x="1366" d="M100 512q0 214 148 368t364 154t292 -172v162h220v-840h142v-184h-362v162q-76 -172 -292 -172t-364 154t-148 368zM272 1316q0 66 47 113t113 47t113 -47t47 -113t-47 -113t-113 -47t-113 47t-47 113zM320 512q0 -136 86 -237t206 -101t206 101t86 237t-86 237t-206 101 t-206 -101t-86 -237zM712 1316q0 66 47 113t113 47t113 -47t47 -113t-47 -113t-113 -47t-113 47t-47 113z" />
<glyph unicode="&#xe5;" horiz-adv-x="1366" d="M100 512q0 214 148 368t364 154t292 -172v162h220v-840h142v-184h-362v162q-76 -172 -292 -172t-364 154t-148 368zM320 512q0 -136 86 -237t206 -101t206 101t86 237t-86 237t-206 101t-206 -101t-86 -237zM372 1396q0 100 70 170t170 70t170 -70t70 -170t-70 -170 t-170 -70t-170 70t-70 170zM494 1396q0 -48 35 -83t83 -35t83 35t35 83t-35 83t-83 35t-83 -35t-35 -83z" />
<glyph unicode="&#xe6;" horiz-adv-x="1856" d="M100 252q0 154 150 247t524 113v22q0 84 -61 148t-123 64q-116 0 -214 -18v-130h-184v256q168 80 398 80q208 0 324 -154q142 154 356 154q220 0 355 -133t135 -385q0 -24 -4 -76h-754q22 -118 102 -192t190 -74q82 0 152 46t114 118l168 -98q-70 -114 -183 -182 t-251 -68q-134 0 -245 58t-181 160q-62 -94 -179 -156t-267 -62t-236 67t-86 195zM326 252q0 -32 32 -55t66 -23t86 13t114 41t106 86t44 134q-258 -16 -353 -61t-95 -135zM1010 624h532q-24 112 -98 169t-174 57q-96 0 -165 -62t-95 -164z" />
<glyph unicode="&#xe7;" horiz-adv-x="1098" d="M100 512q0 224 153 373t375 149q202 0 354 -132l-126 -144q-108 92 -228 92q-124 0 -215 -97t-91 -241t91 -241t215 -97q64 0 129 31t109 77l132 -132q-154 -158 -364 -160l-88 -106q32 12 70 12q82 0 137 -38t55 -120q0 -70 -56 -114t-142 -44q-102 0 -164 50l30 72 q52 -34 134 -34q32 0 56 20t24 50q0 28 -21 47t-51 19q-64 0 -110 -18l-68 82l106 128q-194 28 -320 171t-126 345z" />
<glyph unicode="&#xe8;" horiz-adv-x="1180" d="M100 512q0 220 141 371t353 151q224 0 355 -141t131 -409q0 -30 -2 -44h-752q22 -118 102 -192t190 -74q82 0 152 46t114 118l168 -98q-70 -114 -183 -182t-251 -68q-220 0 -369 148t-149 374zM280 1398v30h268l128 -244v-28h-124zM334 624h532q-24 112 -98 169t-174 57 q-96 0 -165 -62t-95 -164z" />
<glyph unicode="&#xe9;" horiz-adv-x="1180" d="M100 512q0 220 141 371t353 151q224 0 355 -141t131 -409q0 -30 -2 -44h-752q22 -118 102 -192t190 -74q82 0 152 46t114 118l168 -98q-70 -114 -183 -182t-251 -68q-220 0 -369 148t-149 374zM334 624h532q-24 112 -98 169t-174 57q-96 0 -165 -62t-95 -164zM512 1156 v28l128 244h268v-30l-272 -242h-124z" />
<glyph unicode="&#xea;" horiz-adv-x="1180" d="M100 512q0 220 141 371t353 151q224 0 355 -141t131 -409q0 -30 -2 -44h-752q22 -118 102 -192t190 -74q82 0 152 46t114 118l168 -98q-70 -114 -183 -182t-251 -68q-220 0 -369 148t-149 374zM300 1218l238 250h112l238 -250l-68 -78l-226 160l-226 -160zM334 624h532 q-24 112 -98 169t-174 57q-96 0 -165 -62t-95 -164z" />
<glyph unicode="&#xeb;" horiz-adv-x="1180" d="M100 512q0 220 141 371t353 151q224 0 355 -141t131 -409q0 -30 -2 -44h-752q22 -118 102 -192t190 -74q82 0 152 46t114 118l168 -98q-70 -114 -183 -182t-251 -68q-220 0 -369 148t-149 374zM214 1316q0 66 47 113t113 47t113 -47t47 -113t-47 -113t-113 -47t-113 47 t-47 113zM334 624h532q-24 112 -98 169t-174 57q-96 0 -165 -62t-95 -164zM654 1316q0 66 47 113t113 47t113 -47t47 -113t-47 -113t-113 -47t-113 47t-47 113z" />
<glyph unicode="&#xec;" horiz-adv-x="746" d="M10 1398v30h268l128 -244v-28h-124zM100 0v184h164v656h-144v184h364v-840h162v-184h-546z" />
<glyph unicode="&#xed;" horiz-adv-x="746" d="M100 0v184h164v656h-144v184h364v-840h162v-184h-546zM242 1156v28l128 244h268v-30l-272 -242h-124z" />
<glyph unicode="&#xee;" horiz-adv-x="746" d="M10 1218l238 250h112l238 -250l-68 -78l-226 160l-226 -160zM100 0v184h164v656h-144v184h364v-840h162v-184h-546z" />
<glyph unicode="&#xef;" horiz-adv-x="746" d="M-76 1316q0 66 47 113t113 47t113 -47t47 -113t-47 -113t-113 -47t-113 47t-47 113zM100 0v184h164v656h-144v184h364v-840h162v-184h-546zM364 1316q0 66 47 113t113 47t113 -47t47 -113t-47 -113t-113 -47t-113 47t-47 113z" />
<glyph unicode="&#xf0;" horiz-adv-x="1050" d="M100 400q0 186 106 293t286 107q118 0 220 -54q-32 176 -118 302l-212 -124l-64 120l188 110q-86 84 -228 156l82 162q176 -78 310 -224l218 126l64 -120l-196 -112q194 -276 194 -640q0 -264 -127 -388t-313 -124q-170 0 -290 120t-120 290zM320 400q0 -92 57 -157 t137 -65q102 0 159 75t57 197q0 60 -74 116t-154 56q-76 0 -129 -60t-53 -162z" />
<glyph unicode="&#xf1;" horiz-adv-x="1330" d="M100 0v184h144v656h-144v184h364v-110q128 120 274 120q96 0 164 -26t105 -65t58 -106t26 -125t5 -144v-384h134v-184h-498v184h144v342q0 182 -31 253t-107 71q-88 0 -148 -20t-126 -78v-568h144v-184h-508zM300 1232q114 110 198 141t134 6t94 -56t101 -27t131 74 l70 -80q-114 -110 -198 -141t-134 -6t-94 56t-101 27t-131 -74z" />
<glyph unicode="&#xf2;" horiz-adv-x="1224" d="M100 512q0 218 150 370t362 152t362 -152t150 -370t-150 -370t-362 -152t-362 152t-150 370zM298 1398v30h268l128 -244v-28h-124zM320 512q0 -140 85 -239t207 -99t207 99t85 239t-85 239t-207 99t-207 -99t-85 -239z" />
<glyph unicode="&#xf3;" horiz-adv-x="1224" d="M100 512q0 218 150 370t362 152t362 -152t150 -370t-150 -370t-362 -152t-362 152t-150 370zM320 512q0 -140 85 -239t207 -99t207 99t85 239t-85 239t-207 99t-207 -99t-85 -239zM530 1156v28l128 244h268v-30l-272 -242h-124z" />
<glyph unicode="&#xf4;" horiz-adv-x="1224" d="M100 512q0 218 150 370t362 152t362 -152t150 -370t-150 -370t-362 -152t-362 152t-150 370zM318 1218l238 250h112l238 -250l-68 -78l-226 160l-226 -160zM320 512q0 -140 85 -239t207 -99t207 99t85 239t-85 239t-207 99t-207 -99t-85 -239z" />
<glyph unicode="&#xf5;" horiz-adv-x="1224" d="M100 512q0 218 150 370t362 152t362 -152t150 -370t-150 -370t-362 -152t-362 152t-150 370zM248 1232q114 110 198 141t134 6t94 -56t101 -27t131 74l70 -80q-114 -110 -198 -141t-134 -6t-94 56t-101 27t-131 -74zM320 512q0 -140 85 -239t207 -99t207 99t85 239 t-85 239t-207 99t-207 -99t-85 -239z" />
<glyph unicode="&#xf6;" horiz-adv-x="1224" d="M100 512q0 218 150 370t362 152t362 -152t150 -370t-150 -370t-362 -152t-362 152t-150 370zM232 1316q0 66 47 113t113 47t113 -47t47 -113t-47 -113t-113 -47t-113 47t-47 113zM320 512q0 -140 85 -239t207 -99t207 99t85 239t-85 239t-207 99t-207 -99t-85 -239z M672 1316q0 66 47 113t113 47t113 -47t47 -113t-47 -113t-113 -47t-113 47t-47 113z" />
<glyph unicode="&#xf7;" horiz-adv-x="1000" d="M100 490v160h800v-160h-800zM376 268q0 52 36 88t88 36t88 -36t36 -88t-36 -88t-88 -36t-88 36t-36 88zM376 868q0 52 36 88t88 36t88 -36t36 -88t-36 -88t-88 -36t-88 36t-36 88z" />
<glyph unicode="&#xf8;" horiz-adv-x="1224" d="M80 68l126 126q-106 142 -106 318q0 218 150 370t362 152q180 0 320 -114l126 126l86 -86l-128 -128q108 -140 108 -320q0 -218 -150 -370t-362 -152q-180 0 -322 116l-124 -124zM320 512q0 -86 38 -166l434 434q-80 70 -180 70q-122 0 -207 -99t-85 -239zM430 246 q78 -72 182 -72q122 0 207 99t85 239q0 90 -38 170z" />
<glyph unicode="&#xf9;" horiz-adv-x="1340" d="M100 840v184h364v-526q0 -182 31 -253t107 -71q88 0 148 20t126 78v568h-144v184h364v-840h144v-184h-364v110q-128 -120 -274 -120q-96 0 -164 26t-105 65t-58 106t-26 125t-5 144v384h-144zM334 1398v30h268l128 -244v-28h-124z" />
<glyph unicode="&#xfa;" horiz-adv-x="1340" d="M100 840v184h364v-526q0 -182 31 -253t107 -71q88 0 148 20t126 78v568h-144v184h364v-840h144v-184h-364v110q-128 -120 -274 -120q-96 0 -164 26t-105 65t-58 106t-26 125t-5 144v384h-144zM538 1156v28l128 244h268v-30l-272 -242h-124z" />
<glyph unicode="&#xfb;" horiz-adv-x="1340" d="M100 840v184h364v-526q0 -182 31 -253t107 -71q88 0 148 20t126 78v568h-144v184h364v-840h144v-184h-364v110q-128 -120 -274 -120q-96 0 -164 26t-105 65t-58 106t-26 125t-5 144v384h-144zM354 1218l238 250h112l238 -250l-68 -78l-226 160l-226 -160z" />
<glyph unicode="&#xfc;" horiz-adv-x="1340" d="M100 840v184h364v-526q0 -182 31 -253t107 -71q88 0 148 20t126 78v568h-144v184h364v-840h144v-184h-364v110q-128 -120 -274 -120q-96 0 -164 26t-105 65t-58 106t-26 125t-5 144v384h-144zM264 1316q0 66 47 113t113 47t113 -47t47 -113t-47 -113t-113 -47t-113 47 t-47 113zM704 1316q0 66 47 113t113 47t113 -47t47 -113t-47 -113t-113 -47t-113 47t-47 113z" />
<glyph unicode="&#xfd;" horiz-adv-x="1220" d="M70 840v184h454v-184h-104l222 -568l188 568h-114v184h444v-184h-132l-302 -896q-80 -242 -166 -343t-232 -101h-242v300h184v-116h10q102 0 150 44t104 212l22 66l-374 834h-112zM558 1156v28l128 244h268v-30l-272 -242h-124z" />
<glyph unicode="&#xfe;" horiz-adv-x="1368" d="M100 -316h144v1680h-144v184h364v-686q76 172 292 172t364 -154t148 -368t-148 -368t-364 -154t-292 172v-478h144v-184h-508v184zM464 512q0 -138 86 -238t206 -100t206 100t86 238t-86 238t-206 100t-206 -100t-86 -238z" />
<glyph unicode="&#xff;" horiz-adv-x="1220" d="M70 840v184h454v-184h-104l222 -568l188 568h-114v184h444v-184h-132l-302 -896q-80 -242 -166 -343t-232 -101h-242v300h184v-116h10q102 0 150 44t104 212l22 66l-374 834h-112zM260 1316q0 66 47 113t113 47t113 -47t47 -113t-47 -113t-113 -47t-113 47t-47 113z M700 1316q0 66 47 113t113 47t113 -47t47 -113t-47 -113t-113 -47t-113 47t-47 113z" />
<glyph unicode="&#x152;" horiz-adv-x="2062" d="M100 736q0 354 173 534t559 180h1130v-340h-184v156h-552v-426h584v-184h-584v-472h552v156h184v-340h-1130q-388 0 -560 189t-172 547zM328 736q0 -282 111 -417t393 -135h174v1082h-174q-280 0 -392 -127t-112 -403z" />
<glyph unicode="&#x153;" horiz-adv-x="1954" d="M100 512q0 218 150 370t362 152q248 0 384 -194q130 194 372 194q224 0 355 -141t131 -409q0 -30 -2 -44h-752q22 -118 102 -192t190 -74q82 0 152 46t114 118l168 -98q-70 -114 -183 -182t-251 -68q-254 0 -394 198q-138 -198 -386 -198q-212 0 -362 152t-150 370z M320 512q0 -140 85 -239t207 -99t207 99t85 239t-85 239t-207 99t-207 -99t-85 -239zM1108 624h532q-24 112 -98 169t-174 57q-96 0 -165 -62t-95 -164z" />
<glyph unicode="&#x178;" horiz-adv-x="1320" d="M0 1266v184h464v-184h-96l308 -520l276 520h-96v184h464v-184h-108l-426 -724v-358h144v-184h-508v184h144v358l-458 724h-108zM280 1742q0 66 47 113t113 47t113 -47t47 -113t-47 -113t-113 -47t-113 47t-47 113zM720 1742q0 66 47 113t113 47t113 -47t47 -113t-47 -113 t-113 -47t-113 47t-47 113z" />
<glyph unicode="&#x2c6;" horiz-adv-x="1360" d="M386 1210l238 250h112l238 -250l-68 -78l-226 160l-226 -160z" />
<glyph unicode="&#x2dc;" horiz-adv-x="1360" d="M316 1316q114 110 198 141t134 6t94 -56t101 -27t131 74l70 -80q-114 -110 -198 -141t-134 -6t-94 56t-101 27t-131 -74z" />
<glyph unicode="&#x2000;" horiz-adv-x="963" />
<glyph unicode="&#x2001;" horiz-adv-x="1926" />
<glyph unicode="&#x2002;" horiz-adv-x="963" />
<glyph unicode="&#x2003;" horiz-adv-x="1926" />
<glyph unicode="&#x2004;" horiz-adv-x="642" />
<glyph unicode="&#x2005;" horiz-adv-x="481" />
<glyph unicode="&#x2006;" horiz-adv-x="321" />
<glyph unicode="&#x2007;" horiz-adv-x="321" />
<glyph unicode="&#x2008;" horiz-adv-x="240" />
<glyph unicode="&#x2009;" horiz-adv-x="385" />
<glyph unicode="&#x200a;" horiz-adv-x="107" />
<glyph unicode="&#x2010;" d="M100 530v170h400v-170h-400z" />
<glyph unicode="&#x2011;" d="M100 530v170h400v-170h-400z" />
<glyph unicode="&#x2012;" d="M100 530v170h400v-170h-400z" />
<glyph unicode="&#x2013;" horiz-adv-x="1000" d="M100 490v160h800v-160h-800z" />
<glyph unicode="&#x2014;" horiz-adv-x="1800" d="M100 490v160l1600 -2v-160z" />
<glyph unicode="&#x2018;" d="M140 1062q0 242 194 398l62 -64q-68 -74 -68 -142q0 -26 18 -42q6 -6 31 -19t40 -24t29 -39t14 -68q0 -66 -47 -113t-113 -47t-113 47t-47 113z" />
<glyph unicode="&#x2019;" d="M140 1300q0 66 47 113t113 47t113 -47t47 -113q0 -242 -194 -398l-62 64q68 74 68 142q0 28 -18 42q-6 6 -31 19t-40 24t-29 39t-14 68z" />
<glyph unicode="&#x201c;" horiz-adv-x="1000" d="M140 1062q0 242 194 398l62 -64q-68 -74 -68 -142q0 -26 18 -42q6 -6 31 -19t40 -24t29 -39t14 -68q0 -66 -47 -113t-113 -47t-113 47t-47 113zM540 1062q0 242 194 398l62 -64q-68 -74 -68 -142q0 -26 18 -42q6 -6 31 -19t40 -24t29 -39t14 -68q0 -66 -47 -113t-113 -47 t-113 47t-47 113z" />
<glyph unicode="&#x201d;" horiz-adv-x="1000" d="M140 1300q0 66 47 113t113 47t113 -47t47 -113q0 -242 -194 -398l-62 64q68 74 68 142q0 28 -18 42q-6 6 -31 19t-40 24t-29 39t-14 68zM540 1300q0 66 47 113t113 47t113 -47t47 -113q0 -242 -194 -398l-62 64q68 74 68 142q0 28 -18 42q-6 6 -31 19t-40 24t-29 39 t-14 68z" />
<glyph unicode="&#x2022;" horiz-adv-x="720" d="M160 608q0 82 59 141t141 59t141 -59t59 -141t-59 -141t-141 -59t-141 59t-59 141z" />
<glyph unicode="&#x2026;" horiz-adv-x="1800" d="M140 150q0 66 47 113t113 47t113 -47t47 -113t-47 -113t-113 -47t-113 47t-47 113zM740 150q0 66 47 113t113 47t113 -47t47 -113t-47 -113t-113 -47t-113 47t-47 113zM1340 150q0 66 47 113t113 47t113 -47t47 -113t-47 -113t-113 -47t-113 47t-47 113z" />
<glyph unicode="&#x202f;" horiz-adv-x="385" />
<glyph unicode="&#x2039;" horiz-adv-x="550" d="M100 588l150 296h200l-150 -296l150 -296h-200z" />
<glyph unicode="&#x203a;" horiz-adv-x="550" d="M100 292l150 296l-150 296h200l150 -296l-150 -296h-200z" />
<glyph unicode="&#x205f;" horiz-adv-x="481" />
<glyph unicode="&#x20ac;" horiz-adv-x="1198" d="M100 350v120h102q-2 14 -2 42q0 32 2 48h-102v120h126q52 160 190 257t312 97q202 0 354 -132l-126 -144q-108 92 -228 92q-82 0 -154 -46t-112 -124h390v-120h-428q-2 -16 -2 -48q0 -28 2 -42h352v-120h-318q38 -80 112 -128t158 -48q64 0 129 31t109 77l132 -132 q-156 -160 -370 -160q-176 0 -314 99t-190 261h-124z" />
<glyph unicode="&#x25fc;" horiz-adv-x="1020" d="M0 0v1020h1020v-1020h-1020z" />
</font>
</defs>
</svg>
